<?xml version="1.0" encoding="UTF-8" standalone="no"?>
<svg
   xmlns:dc="http://purl.org/dc/elements/1.1/"
   xmlns:cc="http://creativecommons.org/ns#"
   xmlns:rdf="http://www.w3.org/1999/02/22-rdf-syntax-ns#"
   xmlns:svg="http://www.w3.org/2000/svg"
   xmlns="http://www.w3.org/2000/svg"
   xmlns:sodipodi="http://sodipodi.sourceforge.net/DTD/sodipodi-0.dtd"
   xmlns:inkscape="http://www.inkscape.org/namespaces/inkscape"
   width="100mm"
   height="100mm"
   viewBox="0 0 100 100"
   version="1.1"
   id="svg8"
   sodipodi:docname="Create Thread.svg"
   inkscape:version="1.0.1 (3bc2e813f5, 2020-09-07)">
  <defs
     id="defs2" />
  <sodipodi:namedview
     id="base"
     pagecolor="#ffffff"
     bordercolor="#666666"
     borderopacity="1.0"
     inkscape:pageopacity="0.0"
     inkscape:pageshadow="2"
     inkscape:zoom="1.4"
     inkscape:cx="248.73182"
     inkscape:cy="322.31944"
     inkscape:document-units="mm"
     inkscape:current-layer="layer1"
     inkscape:document-rotation="0"
     showgrid="false"
     inkscape:window-width="1920"
     inkscape:window-height="1001"
     inkscape:window-x="305"
     inkscape:window-y="1431"
     inkscape:window-maximized="1" />
  <metadata
     id="metadata5">
    <rdf:RDF>
      <cc:Work
         rdf:about="">
        <dc:format>image/svg+xml</dc:format>
        <dc:type
           rdf:resource="http://purl.org/dc/dcmitype/StillImage" />
        <dc:title></dc:title>
      </cc:Work>
    </rdf:RDF>
  </metadata>
  <g
     inkscape:label="Layer 1"
     inkscape:groupmode="layer"
     id="layer1">
    <g
       aria-label="Create Thread"
       transform="rotate(169.65497,50.762761,53.897731)"
       id="text888"
       style="font-style:normal;font-variant:normal;font-weight:bold;font-stretch:normal;font-size:11.2889px;line-height:1.25;font-family:'Trebuchet MS';-inkscape-font-specification:'Trebuchet MS Bold';fill:#000000;fill-opacity:1;stroke:none;stroke-width:0.264583"
       inkscape:transform-center-x="8.3387153"
       inkscape:transform-center-y="-16.397752">
      <path
         d="m 89.660574,60.778143 -1.110787,-0.720078 q 0.530728,-0.422231 0.651073,-1.479249 0.114109,-1.00225 -0.65636,-1.739059 -0.764991,-0.736186 -2.052034,-0.882719 -1.287042,-0.146534 -2.11018,0.358908 -0.823762,0.510919 -0.936624,1.502216 -0.129075,1.133693 0.608533,1.86676 l -1.225572,0.531745 q -0.826431,-0.976187 -0.635002,-2.657557 0.191429,-1.68137 1.403741,-2.486466 1.212312,-0.805095 3.123707,-0.587477 1.779952,0.202653 2.856662,1.36822 1.081564,1.171668 0.898241,2.78184 -0.157134,1.380148 -0.815398,2.142916 z"
         style="font-style:normal;font-variant:normal;font-weight:bold;font-stretch:normal;font-size:11.2889px;font-family:'Trebuchet MS';-inkscape-font-specification:'Trebuchet MS Bold';fill:#000000;stroke-width:0.264583"
         id="path1070" />
      <path
         d="m 85.04476,65.812243 q 0.342967,-0.27855 0.476478,-0.698825 0.145193,-0.45705 -0.156345,-0.946127 -0.303207,-0.483823 -0.9021,-0.674076 l -3.204603,-1.01802 0.417221,-1.313362 5.626443,1.787377 -0.417222,1.313362 -0.514838,-0.163551 q 0.444674,0.74854 0.154288,1.66264 -0.213617,0.672441 -0.531986,0.964589 z"
         style="font-style:normal;font-variant:normal;font-weight:bold;font-stretch:normal;font-size:11.2889px;font-family:'Trebuchet MS';-inkscape-font-specification:'Trebuchet MS Bold';fill:#000000;stroke-width:0.264583"
         id="path1072" />
      <path
         d="m 79.882521,71.588465 1.997552,-3.71365 q -0.639647,-0.30025 -1.195818,-0.09243 -0.556171,0.207817 -0.913903,0.872876 -0.446511,0.83011 -0.246861,1.49455 l -1.180483,-0.02785 q -0.17475,-0.920183 0.509379,-2.192047 0.639739,-1.189339 1.707323,-1.510126 1.069828,-0.313321 2.31742,0.357752 1.228175,0.660628 1.582978,1.827877 0.352193,1.172103 -0.219656,2.235226 -0.608404,1.131086 -1.651349,1.452608 -1.042944,0.321523 -2.086649,-0.239881 -0.223305,-0.120114 -0.619933,-0.464897 z m 2.886687,-3.179058 -1.37348,2.553438 q 1.208685,0.487411 1.819701,-0.648529 0.558792,-1.038851 -0.446221,-1.904909 z"
         style="font-style:normal;font-variant:normal;font-weight:bold;font-stretch:normal;font-size:11.2889px;font-family:'Trebuchet MS';-inkscape-font-specification:'Trebuchet MS Bold';fill:#000000;stroke-width:0.264583"
         id="path1074" />
      <path
         d="m 75.268377,74.28239 q -0.117134,-0.341595 0.0304,-0.82856 0.148241,-0.479201 0.472916,-0.868759 0.61053,-0.732538 1.32406,-0.848236 0.717765,-0.112169 1.391023,0.448954 0.787585,0.656408 0.741647,1.615532 -0.04947,0.963359 -0.956438,2.051581 -0.155279,0.18631 -0.430538,0.387433 0.800287,0.666996 1.643736,-0.345009 0.4976,-0.59704 0.633848,-1.165167 l 1.01203,0.455987 q -0.192723,0.76503 -0.820898,1.518741 -0.864623,1.03741 -1.741182,1.124866 -0.872325,0.09099 -2.189201,-1.006556 l -0.96966,-0.808158 q -0.906146,-0.755222 -1.442535,-0.585169 -0.119252,-0.321834 -0.03596,-0.525087 0.07906,-0.206783 0.251983,-0.414265 0.19057,-0.228653 0.511693,-0.269566 0.321124,-0.04091 0.573073,0.06144 z m 1.765726,1.299419 q 0.280907,-0.225119 0.393837,-0.360617 1.044606,-1.253361 0.223147,-1.938002 -0.609743,-0.508186 -1.199099,0.198946 -0.794042,0.952724 0.158682,1.746766 z"
         style="font-style:normal;font-variant:normal;font-weight:bold;font-stretch:normal;font-size:11.2889px;font-family:'Trebuchet MS';-inkscape-font-specification:'Trebuchet MS Bold';fill:#000000;stroke-width:0.264583"
         id="path1076" />
      <path
         d="m 75.894452,79.649206 0.518151,-0.44576 0.722563,0.839906 -0.518151,0.44576 0.783675,0.910943 -0.713934,1.283145 -1.114401,-1.295378 -1.228519,1.056883 -0.722563,-0.839906 1.22852,-1.056883 -1.685981,-1.959781 q -0.413406,-0.480543 -0.736389,-0.551704 -0.319389,-0.06698 -0.695466,0.256554 -0.376078,0.323536 -0.525864,0.808687 l -0.826814,-0.961087 q 0.255697,-0.43811 0.928457,-1.01688 0.668582,-0.575174 1.351481,-0.508253 0.686493,0.0711 1.286832,0.768932 z"
         style="font-style:normal;font-variant:normal;font-weight:bold;font-stretch:normal;font-size:11.2889px;font-family:'Trebuchet MS';-inkscape-font-specification:'Trebuchet MS Bold';fill:#000000;stroke-width:0.264583"
         id="path1078" />
      <path
         d="m 66.276383,83.648065 3.617564,-2.166714 q -0.395637,-0.585465 -0.979767,-0.691796 -0.58413,-0.106331 -1.231981,0.281695 -0.808632,0.484324 -0.977423,1.157266 l -0.999668,-0.628475 q 0.32115,-0.879851 1.560106,-1.621915 1.158566,-0.693914 2.23981,-0.42271 1.079348,0.278766 1.80725,1.494078 0.716573,1.196397 0.423546,2.380665 -0.297756,1.1871 -1.333372,1.807374 -1.10182,0.659928 -2.162277,0.401974 -1.060457,-0.257954 -1.669403,-1.274655 -0.130286,-0.217527 -0.294385,-0.716787 z m 4.107478,-1.252201 -2.487371,1.489793 q 0.788542,1.037637 1.895091,0.374878 1.011972,-0.606113 0.59228,-1.864671 z"
         style="font-style:normal;font-variant:normal;font-weight:bold;font-stretch:normal;font-size:11.2889px;font-family:'Trebuchet MS';-inkscape-font-specification:'Trebuchet MS Bold';fill:#000000;stroke-width:0.264583"
         id="path1080" />
      <path
         d="m 59.161833,90.539095 -1.578621,-6.616283 1.394031,-0.332611 1.578621,6.616284 2.498532,-0.596141 0.295511,1.238543 -6.503689,1.551756 -0.295511,-1.238543 z"
         style="font-style:normal;font-variant:normal;font-weight:bold;font-stretch:normal;font-size:11.2889px;font-family:'Trebuchet MS';-inkscape-font-specification:'Trebuchet MS Bold';fill:#000000;stroke-width:0.264583"
         id="path1082" />
      <path
         d="m 50.276392,84.687846 0.102432,3.636583 q 0.01536,0.545487 0.366295,0.866463 0.35093,0.320976 0.901927,0.305456 0.341619,-0.0096 0.68347,-0.206739 0.342007,-0.191607 0.484102,-0.432726 l -0.119348,-4.237169 1.399533,-0.03942 0.228143,8.099661 -1.390221,0.370019 -0.08179,-2.903756 q -0.52081,0.499932 -1.457505,0.526316 -1.107505,0.03119 -1.736494,-0.568695 -0.628834,-0.59438 -0.661116,-1.740454 l -0.102431,-3.636583 z"
         style="font-style:normal;font-variant:normal;font-weight:bold;font-stretch:normal;font-size:11.2889px;font-family:'Trebuchet MS';-inkscape-font-specification:'Trebuchet MS Bold';fill:#000000;stroke-width:0.264583"
         id="path1084" />
      <path
         d="m 43.359633,88.638571 q 0.330409,0.293337 0.766757,0.357032 0.474529,0.06927 0.908324,-0.307484 0.428341,-0.377549 0.519107,-0.999345 l 0.485676,-3.327156 1.363589,0.199048 -0.852721,5.841612 -1.363589,-0.199048 0.07803,-0.534526 q -0.666658,0.560013 -1.615715,0.421476 -0.698157,-0.101912 -1.038002,-0.368773 z"
         style="font-style:normal;font-variant:normal;font-weight:bold;font-stretch:normal;font-size:11.2889px;font-family:'Trebuchet MS';-inkscape-font-specification:'Trebuchet MS Bold';fill:#000000;stroke-width:0.264583"
         id="path1086" />
      <path
         d="m 36.832762,84.561426 4.005103,1.319302 q 0.184098,-0.682207 -0.117526,-1.193613 -0.301625,-0.511406 -1.018879,-0.747674 -0.895258,-0.294903 -1.514699,0.01756 l -0.178442,-1.167251 q 0.875607,-0.332547 2.247289,0.119293 1.28268,0.422522 1.784732,1.417803 0.495092,0.998792 0.05188,2.344297 -0.436318,1.324564 -1.523804,1.877492 -1.092721,0.551203 -2.23928,0.173521 -1.219855,-0.401827 -1.718335,-1.372717 -0.498479,-0.97089 -0.127694,-2.096508 0.07933,-0.24083 0.34966,-0.691508 z m 3.633764,2.288042 -2.753836,-0.907129 q -0.269155,1.275165 0.955936,1.678717 1.120382,0.36906 1.7979,-0.771588 z"
         style="font-style:normal;font-variant:normal;font-weight:bold;font-stretch:normal;font-size:11.2889px;font-family:'Trebuchet MS';-inkscape-font-specification:'Trebuchet MS Bold';fill:#000000;stroke-width:0.264583"
         id="path1088" />
      <path
         d="m 33.362484,80.524429 q 0.314507,-0.177463 0.82021,-0.121204 0.498199,0.05837 0.940433,0.306559 0.831591,0.466707 1.075468,1.147175 0.241179,0.685274 -0.18776,1.449569 -0.501778,0.89408 -1.453196,1.023819 -0.956226,0.127041 -2.191595,-0.566275 -0.211503,-0.118701 -0.45945,-0.352668 -0.509871,0.908502 0.638974,1.553259 0.677771,0.38038 1.261219,0.410741 l -0.263788,1.078213 q -0.787347,-0.04998 -1.642973,-0.530176 -1.177687,-0.660944 -1.423526,-1.506856 -0.248537,-0.841106 0.590457,-2.336047 l 0.61778,-1.100777 q 0.577314,-1.028673 0.312297,-1.525057 0.29469,-0.175942 0.509725,-0.131111 0.217732,0.04002 0.453269,0.172213 0.259572,0.145678 0.358359,0.453955 0.09879,0.308278 0.0441,0.574668 z m -0.955633,1.973079 q 0.27257,0.235144 0.42639,0.321471 1.422838,0.798528 1.946198,-0.134008 0.388473,-0.692191 -0.414277,-1.142712 -1.081549,-0.606989 -1.688538,0.47456 z"
         style="font-style:normal;font-variant:normal;font-weight:bold;font-stretch:normal;font-size:11.2889px;font-family:'Trebuchet MS';-inkscape-font-specification:'Trebuchet MS Bold';fill:#000000;stroke-width:0.264583"
         id="path1090" />
      <path
         d="m 28.435158,76.099462 -0.232768,0.272381 q 0.25166,-0.03146 0.654862,0.124581 0.399621,0.160235 0.730668,0.443137 0.938665,0.802153 0.970728,1.859154 0.02787,1.05342 -0.881711,2.1178 -0.909585,1.064379 -2.094969,1.204251 -1.193156,0.140481 -2.123441,-0.65451 -0.511237,-0.436887 -0.751232,-1.004514 l -1.536266,1.797711 -1.26248,-0.643832 5.478992,-6.411419 z m -2.918548,3.415233 q 0.106051,0.554674 0.470622,0.866224 0.628571,0.537156 1.297454,0.441697 0.665303,-0.09127 1.277661,-0.807839 1.196067,-1.399617 -0.153264,-2.552712 -0.150857,-0.128917 -0.443963,-0.227131 -0.300878,-0.09761 -0.446708,-0.06271 z"
         style="font-style:normal;font-variant:normal;font-weight:bold;font-stretch:normal;font-size:11.2889px;font-family:'Trebuchet MS';-inkscape-font-specification:'Trebuchet MS Bold';fill:#000000;stroke-width:0.264583"
         id="path1092" />
    </g>
  </g>
</svg>
