<?xml version="1.0" encoding="UTF-8" standalone="no"?>
<svg
   xmlns:dc="http://purl.org/dc/elements/1.1/"
   xmlns:cc="http://creativecommons.org/ns#"
   xmlns:rdf="http://www.w3.org/1999/02/22-rdf-syntax-ns#"
   xmlns:svg="http://www.w3.org/2000/svg"
   xmlns="http://www.w3.org/2000/svg"
   xmlns:sodipodi="http://sodipodi.sourceforge.net/DTD/sodipodi-0.dtd"
   xmlns:inkscape="http://www.inkscape.org/namespaces/inkscape"
   width="100mm"
   height="100mm"
   viewBox="0 0 100 100"
   version="1.1"
   id="svg8"
   sodipodi:docname="create-community.svg"
   inkscape:version="1.0.1 (3bc2e813f5, 2020-09-07)">
  <defs
     id="defs2" />
  <sodipodi:namedview
     id="base"
     pagecolor="#ffffff"
     bordercolor="#666666"
     borderopacity="1.0"
     inkscape:pageopacity="0.0"
     inkscape:pageshadow="2"
     inkscape:zoom="2.8"
     inkscape:cx="222.33335"
     inkscape:cy="166.7553"
     inkscape:document-units="mm"
     inkscape:current-layer="text888"
     inkscape:document-rotation="0"
     showgrid="false"
     inkscape:window-width="1920"
     inkscape:window-height="1001"
     inkscape:window-x="305"
     inkscape:window-y="1431"
     inkscape:window-maximized="1" />
  <metadata
     id="metadata5">
    <rdf:RDF>
      <cc:Work
         rdf:about="">
        <dc:format>image/svg+xml</dc:format>
        <dc:type
           rdf:resource="http://purl.org/dc/dcmitype/StillImage" />
        <dc:title />
      </cc:Work>
    </rdf:RDF>
  </metadata>
  <g
     inkscape:label="Layer 1"
     inkscape:groupmode="layer"
     id="layer1">
    <g
       aria-label="Create Communitiy"
       transform="rotate(156.25712,50.760212,53.897691)"
       id="text888"
       style="font-style:normal;font-variant:normal;font-weight:bold;font-stretch:normal;font-size:11.2889px;line-height:1.25;font-family:'Trebuchet MS';-inkscape-font-specification:'Trebuchet MS Bold';fill:#000000;fill-opacity:1;stroke:none;stroke-width:0.264583"
       inkscape:transform-center-x="8.5305746"
       inkscape:transform-center-y="-13.84709">
      <path
         d="m 89.660574,60.778143 -1.110787,-0.720078 q 0.530728,-0.422231 0.651073,-1.479249 0.114109,-1.00225 -0.65636,-1.739059 -0.764991,-0.736186 -2.052034,-0.882719 -1.287042,-0.146534 -2.11018,0.358908 -0.823762,0.510919 -0.936624,1.502216 -0.129075,1.133693 0.608533,1.86676 l -1.225572,0.531745 q -0.826431,-0.976187 -0.635002,-2.657557 0.191429,-1.68137 1.403741,-2.486466 1.212312,-0.805095 3.123707,-0.587477 1.779952,0.202653 2.856662,1.36822 1.081564,1.171668 0.898241,2.78184 -0.157134,1.380148 -0.815398,2.142916 z"
         style="font-style:normal;font-variant:normal;font-weight:bold;font-stretch:normal;font-size:11.2889px;font-family:'Trebuchet MS';-inkscape-font-specification:'Trebuchet MS Bold';fill:#000000;stroke-width:0.264583"
         id="path1037" />
      <path
         d="m 85.04476,65.812243 q 0.342967,-0.27855 0.476478,-0.698825 0.145193,-0.45705 -0.156345,-0.946127 -0.303207,-0.483823 -0.9021,-0.674076 l -3.204603,-1.01802 0.417221,-1.313362 5.626443,1.787377 -0.417222,1.313362 -0.514838,-0.163551 q 0.444674,0.74854 0.154288,1.66264 -0.213617,0.672441 -0.531986,0.964589 z"
         style="font-style:normal;font-variant:normal;font-weight:bold;font-stretch:normal;font-size:11.2889px;font-family:'Trebuchet MS';-inkscape-font-specification:'Trebuchet MS Bold';fill:#000000;stroke-width:0.264583"
         id="path1039" />
      <path
         d="m 79.882521,71.588465 1.997552,-3.71365 q -0.639647,-0.30025 -1.195818,-0.09243 -0.556171,0.207817 -0.913903,0.872876 -0.446511,0.83011 -0.246861,1.49455 l -1.180483,-0.02785 q -0.17475,-0.920183 0.509379,-2.192047 0.639739,-1.189339 1.707323,-1.510126 1.069828,-0.313321 2.31742,0.357752 1.228175,0.660628 1.582978,1.827877 0.352193,1.172103 -0.219656,2.235226 -0.608404,1.131086 -1.651349,1.452608 -1.042944,0.321523 -2.086649,-0.239881 -0.223305,-0.120114 -0.619933,-0.464897 z m 2.886687,-3.179058 -1.37348,2.553438 q 1.208685,0.487411 1.819701,-0.648529 0.558792,-1.038851 -0.446221,-1.904909 z"
         style="font-style:normal;font-variant:normal;font-weight:bold;font-stretch:normal;font-size:11.2889px;font-family:'Trebuchet MS';-inkscape-font-specification:'Trebuchet MS Bold';fill:#000000;stroke-width:0.264583"
         id="path1041" />
      <path
         d="m 75.268377,74.28239 q -0.117134,-0.341595 0.0304,-0.82856 0.148241,-0.479201 0.472916,-0.868759 0.61053,-0.732538 1.32406,-0.848236 0.717765,-0.112169 1.391023,0.448954 0.787585,0.656408 0.741647,1.615532 -0.04947,0.963359 -0.956438,2.051581 -0.155279,0.18631 -0.430538,0.387433 0.800287,0.666996 1.643736,-0.345009 0.4976,-0.59704 0.633848,-1.165167 l 1.01203,0.455987 q -0.192723,0.76503 -0.820898,1.518741 -0.864623,1.03741 -1.741182,1.124866 -0.872325,0.09099 -2.189201,-1.006556 l -0.96966,-0.808158 q -0.906146,-0.755222 -1.442535,-0.585169 -0.119252,-0.321834 -0.03596,-0.525087 0.07906,-0.206783 0.251983,-0.414265 0.19057,-0.228653 0.511693,-0.269566 0.321124,-0.04091 0.573073,0.06144 z m 1.765726,1.299419 q 0.280907,-0.225119 0.393837,-0.360617 1.044606,-1.253361 0.223147,-1.938002 -0.609743,-0.508186 -1.199099,0.198946 -0.794042,0.952724 0.158682,1.746766 z"
         style="font-style:normal;font-variant:normal;font-weight:bold;font-stretch:normal;font-size:11.2889px;font-family:'Trebuchet MS';-inkscape-font-specification:'Trebuchet MS Bold';fill:#000000;stroke-width:0.264583"
         id="path1043" />
      <path
         d="m 75.894452,79.649206 0.518151,-0.44576 0.722563,0.839906 -0.518151,0.44576 0.783675,0.910943 -0.713934,1.283145 -1.114401,-1.295378 -1.228519,1.056883 -0.722563,-0.839906 1.22852,-1.056883 -1.685981,-1.959781 q -0.413406,-0.480543 -0.736389,-0.551704 -0.319389,-0.06698 -0.695466,0.256554 -0.376078,0.323536 -0.525864,0.808687 l -0.826814,-0.961087 q 0.255697,-0.43811 0.928457,-1.01688 0.668582,-0.575174 1.351481,-0.508253 0.686493,0.0711 1.286832,0.768932 z"
         style="font-style:normal;font-variant:normal;font-weight:bold;font-stretch:normal;font-size:11.2889px;font-family:'Trebuchet MS';-inkscape-font-specification:'Trebuchet MS Bold';fill:#000000;stroke-width:0.264583"
         id="path1045" />
      <path
         d="m 66.276383,83.648065 3.617564,-2.166714 q -0.395637,-0.585465 -0.979767,-0.691796 -0.58413,-0.106331 -1.231981,0.281695 -0.808632,0.484324 -0.977423,1.157266 l -0.999668,-0.628475 q 0.32115,-0.879851 1.560106,-1.621915 1.158566,-0.693914 2.23981,-0.42271 1.079348,0.278766 1.80725,1.494078 0.716573,1.196397 0.423546,2.380665 -0.297756,1.1871 -1.333372,1.807374 -1.10182,0.659928 -2.162277,0.401974 -1.060457,-0.257954 -1.669403,-1.274655 -0.130286,-0.217527 -0.294385,-0.716787 z m 4.107478,-1.252201 -2.487371,1.489793 q 0.788542,1.037637 1.895091,0.374878 1.011972,-0.606113 0.59228,-1.864671 z"
         style="font-style:normal;font-variant:normal;font-weight:bold;font-stretch:normal;font-size:11.2889px;font-family:'Trebuchet MS';-inkscape-font-specification:'Trebuchet MS Bold';fill:#000000;stroke-width:0.264583"
         id="path1047" />
      <path
         d="m 56.920751,91.921322 0.306707,-1.287747 q 0.57553,0.358772 1.611852,0.118344 0.982627,-0.22797 1.41902,-1.200632 0.437639,-0.967292 0.14489,-2.229135 -0.292749,-1.261844 -1.044572,-1.868301 -0.757192,-0.605212 -1.72908,-0.379733 -1.111496,0.257868 -1.555363,1.198312 l -0.911321,-0.97687 q 0.643228,-1.105526 2.291679,-1.487968 1.64845,-0.382442 2.812913,0.490431 1.164462,0.872873 1.599225,2.746844 0.404865,1.745103 -0.333039,3.149863 -0.742027,1.411375 -2.320673,1.777622 -1.353126,0.313927 -2.292238,-0.05103 z"
         style="font-style:normal;font-variant:normal;font-weight:bold;font-stretch:normal;font-size:11.2889px;font-family:'Trebuchet MS';-inkscape-font-specification:'Trebuchet MS Bold';fill:#000000;stroke-width:0.264583"
         id="path1049" />
      <path
         d="m 54.35551,87.544106 q 0.03588,1.350002 -0.718502,2.219225 -0.759894,0.869371 -2.038264,0.90335 -1.344491,0.03574 -2.110047,-0.760002 -0.765555,-0.795738 -0.803196,-2.211863 -0.03749,-1.410614 0.700799,-2.262868 0.732783,-0.852108 2.049724,-0.887112 1.344492,-0.03574 2.116143,0.781896 0.766287,0.82329 0.803343,2.217374 z m -1.432656,0.03808 q -0.05185,-1.950615 -1.456952,-1.913267 -0.644694,0.01714 -1.005914,0.534035 -0.36673,0.517046 -0.341832,1.453782 0.05112,1.923064 1.45071,1.885862 0.644695,-0.01714 1.011425,-0.534182 0.36673,-0.517045 0.342563,-1.42623 z"
         style="font-style:normal;font-variant:normal;font-weight:bold;font-stretch:normal;font-size:11.2889px;font-family:'Trebuchet MS';-inkscape-font-specification:'Trebuchet MS Bold';fill:#000000;stroke-width:0.264583"
         id="path1051" />
      <path
         d="m 40.78684,83.313509 -0.794742,3.612265 q -0.249911,1.135899 0.767552,1.359753 0.301471,0.06633 0.620494,-0.04974 0.319023,-0.116063 0.483004,-0.322677 l 0.915552,-4.161372 1.345851,0.296103 -0.840934,3.822218 q -0.09357,0.425289 0.115735,0.730962 0.20812,0.311057 0.687243,0.416469 0.25302,0.05567 0.595945,-0.06642 0.337542,-0.123277 0.521873,-0.319769 l 0.911998,-4.145223 1.345851,0.296104 -1.268507,5.765627 -0.925945,-0.203719 -0.163219,-0.566445 q -0.694897,0.490529 -1.583159,0.295101 -1.146666,-0.25228 -1.590682,-1.004672 -0.315794,0.229653 -0.804716,0.297048 -0.490108,0.07278 -0.942314,-0.02671 -0.963629,-0.21201 -1.374592,-0.883757 -0.41753,-0.667549 -0.20552,-1.631179 l 0.83738,-3.806067 z"
         style="font-style:normal;font-variant:normal;font-weight:bold;font-stretch:normal;font-size:11.2889px;font-family:'Trebuchet MS';-inkscape-font-specification:'Trebuchet MS Bold';fill:#000000;stroke-width:0.264583"
         id="path1053" />
      <path
         d="m 32.05143,79.098626 -1.823924,3.217666 q -0.573544,1.011815 0.332774,1.525558 0.268538,0.15222 0.607597,0.135321 0.339058,-0.0169 0.556643,-0.166015 l 2.101182,-3.70679 1.198832,0.679554 -1.929934,3.404685 q -0.214739,0.378831 -0.104806,0.732608 0.107215,0.358574 0.534,0.600495 0.22538,0.127756 0.589056,0.11214 0.358881,-0.01833 0.592929,-0.151783 l 2.093027,-3.692404 1.198833,0.679554 -2.91121,5.135798 -0.824797,-0.467533 0.01095,-0.58939 q -0.808591,0.263973 -1.59982,-0.184533 -1.021405,-0.57898 -1.223988,-1.428806 -0.369446,0.126397 -0.856518,0.04672 -0.489791,-0.07488 -0.892599,-0.30321 -0.858364,-0.486561 -1.053125,-1.249583 -0.202275,-0.760946 0.284286,-1.61931 l 1.921779,-3.390298 z"
         style="font-style:normal;font-variant:normal;font-weight:bold;font-stretch:normal;font-size:11.2889px;font-family:'Trebuchet MS';-inkscape-font-specification:'Trebuchet MS Bold';fill:#000000;stroke-width:0.264583"
         id="path1055" />
      <path
         d="m 27.025815,74.700695 -0.345742,0.35577 q 0.38238,0.02572 0.872939,0.256489 0.49056,0.230771 0.798894,0.530413 1.474468,1.432908 -0.04679,2.998295 l -2.669894,2.747334 -0.98825,-0.960393 2.596904,-2.672227 q 0.791364,-0.814318 0.06006,-1.525009 -0.336005,-0.326534 -0.793603,-0.433037 -0.457599,-0.106503 -0.775282,0.03057 l -2.827398,2.909407 -0.98825,-0.960394 4.118167,-4.237614 z"
         style="font-style:normal;font-variant:normal;font-weight:bold;font-stretch:normal;font-size:11.2889px;font-family:'Trebuchet MS';-inkscape-font-specification:'Trebuchet MS Bold';fill:#000000;stroke-width:0.264583"
         id="path1057" />
      <path
         d="m 22.963667,69.428183 -2.840024,1.891081 q -0.628567,0.418544 -0.755698,0.854181 -0.130186,0.431049 0.233366,0.977031 0.168028,0.252344 0.502727,0.446686 0.331644,0.189755 0.649623,0.209805 l 3.551176,-2.364616 0.763765,1.147021 -4.913836,3.271968 -0.549911,-0.825855 0.318275,-0.516557 q -0.862185,-0.101378 -1.470142,-1.014406 -0.583517,-0.876324 -0.391944,-1.732345 0.18393,-0.857554 1.124487,-1.483841 l 3.014371,-2.007174 z"
         style="font-style:normal;font-variant:normal;font-weight:bold;font-stretch:normal;font-size:11.2889px;font-family:'Trebuchet MS';-inkscape-font-specification:'Trebuchet MS Bold';fill:#000000;stroke-width:0.264583"
         id="path1059" />
      <path
         d="m 13.682023,69.298259 q -0.136188,-0.301389 -0.01552,-0.609962 0.113371,-0.311326 0.41476,-0.447513 0.301388,-0.136187 0.614984,-0.01779 0.306303,0.115641 0.442491,0.417029 0.136187,0.301389 0.02282,0.612715 -0.120664,0.308573 -0.422053,0.44476 -0.301388,0.136187 -0.607691,0.02055 -0.313596,-0.118394 -0.449783,-0.419782 z m 7.757191,-2.724921 -4.350041,1.965637 0.310961,0.68817 -1.029744,0.465307 -0.885217,-1.959025 5.379784,-2.430944 z"
         style="font-style:normal;font-variant:normal;font-weight:bold;font-stretch:normal;font-size:11.2889px;font-family:'Trebuchet MS';-inkscape-font-specification:'Trebuchet MS Bold';fill:#000000;stroke-width:0.264583"
         id="path1061" />
      <path
         d="m 15.609124,65.007959 0.198661,0.654 -1.060113,0.322024 -0.198662,-0.654 -1.149774,0.349261 -0.885754,-1.171155 1.635001,-0.496654 -0.471021,-1.550614 1.060113,-0.322024 0.471021,1.550613 2.473597,-0.75139 q 0.606533,-0.184243 0.802018,-0.451015 0.190211,-0.26517 0.04602,-0.739848 -0.14419,-0.474677 -0.52759,-0.807561 l 1.213065,-0.368486 q 0.297609,0.410792 0.555549,1.259937 0.256338,0.843872 -0.08056,1.441642 -0.34217,0.599373 -1.222961,0.866926 z"
         style="font-style:normal;font-variant:normal;font-weight:bold;font-stretch:normal;font-size:11.2889px;font-family:'Trebuchet MS';-inkscape-font-specification:'Trebuchet MS Bold';fill:#000000;stroke-width:0.264583"
         id="path1063" />
      <path
         d="m 18.920152,56.191663 q 0.611964,0.148257 1.082184,0.82441 0.475034,0.67002 0.590568,1.627704 l -1.209416,0.145913 q -0.1908,-1.581547 -0.984308,-1.485817 -0.525358,0.06339 -1.556092,0.631899 l -4.326462,2.38191 -0.170993,-1.417372 3.856854,-2.086515 -4.223269,-0.950711 -0.170993,-1.417372 z"
         style="font-style:normal;font-variant:normal;font-weight:bold;font-stretch:normal;font-size:11.2889px;font-family:'Trebuchet MS';-inkscape-font-specification:'Trebuchet MS Bold';fill:#000000;stroke-width:0.264583"
         id="path1067" />
    </g>
  </g>
</svg>
