<?xml version="1.0" encoding="UTF-8" standalone="no"?>
<svg
   xmlns:dc="http://purl.org/dc/elements/1.1/"
   xmlns:cc="http://creativecommons.org/ns#"
   xmlns:rdf="http://www.w3.org/1999/02/22-rdf-syntax-ns#"
   xmlns:svg="http://www.w3.org/2000/svg"
   xmlns="http://www.w3.org/2000/svg"
   xmlns:sodipodi="http://sodipodi.sourceforge.net/DTD/sodipodi-0.dtd"
   xmlns:inkscape="http://www.inkscape.org/namespaces/inkscape"
   width="100mm"
   height="100mm"
   viewBox="0 0 100 100"
   version="1.1"
   id="svg8"
   sodipodi:docname="manage-communities.svg"
   inkscape:version="1.0.1 (3bc2e813f5, 2020-09-07)">
  <defs
     id="defs2" />
  <sodipodi:namedview
     id="base"
     pagecolor="#ffffff"
     bordercolor="#666666"
     borderopacity="1.0"
     inkscape:pageopacity="0.0"
     inkscape:pageshadow="2"
     inkscape:zoom="0.98994949"
     inkscape:cx="345.25131"
     inkscape:cy="392.27323"
     inkscape:document-units="mm"
     inkscape:current-layer="layer1"
     inkscape:document-rotation="0"
     showgrid="false"
     inkscape:window-width="1920"
     inkscape:window-height="1001"
     inkscape:window-x="305"
     inkscape:window-y="1431"
     inkscape:window-maximized="1" />
  <metadata
     id="metadata5">
    <rdf:RDF>
      <cc:Work
         rdf:about="">
        <dc:format>image/svg+xml</dc:format>
        <dc:type
           rdf:resource="http://purl.org/dc/dcmitype/StillImage" />
        <dc:title></dc:title>
      </cc:Work>
    </rdf:RDF>
  </metadata>
  <g
     inkscape:label="Layer 1"
     inkscape:groupmode="layer"
     id="layer1">
    <g
       aria-label="Manage Communities"
       transform="rotate(156.25712,50.760212,53.897691)"
       id="text888"
       style="font-style:normal;font-variant:normal;font-weight:bold;font-stretch:normal;font-size:11.2889px;line-height:1.25;font-family:'Trebuchet MS';-inkscape-font-specification:'Trebuchet MS Bold';fill:#000000;fill-opacity:1;stroke:none;stroke-width:0.264583"
       inkscape:transform-center-x="8.5305746"
       inkscape:transform-center-y="-13.84709">
      <path
         d="m 81.721417,61.881033 0.191457,-1.375806 4.428526,-0.229646 -4.192647,-2.225207 0.07066,-0.507738 4.640901,-0.995927 -4.193002,-1.462813 0.190698,-1.370347 7.779571,2.724365 -0.104846,0.753418 -5.629416,0.9808 5.153051,2.442336 -0.104087,0.747958 z"
         style="font-style:normal;font-variant:normal;font-weight:bold;font-stretch:normal;font-size:11.2889px;font-family:'Trebuchet MS';-inkscape-font-specification:'Trebuchet MS Bold';fill:#000000;stroke-width:0.264583"
         id="path1095" />
      <path
         d="m 80.637562,65.896763 q -0.21802,-0.28788 -0.230057,-0.796561 -0.0089,-0.501526 0.17773,-0.973038 0.351023,-0.886647 0.992658,-1.219538 0.64676,-0.330862 1.461655,-0.0082 0.953273,0.3774 1.209376,1.302841 0.254074,0.930566 -0.267387,2.247724 -0.08928,0.225505 -0.287896,0.502577 0.968649,0.383487 1.453588,-0.841418 0.286093,-0.722643 0.23797,-1.304895 l 1.103842,0.116876 q 0.05601,0.786941 -0.305155,1.699213 -0.497112,1.255657 -1.302436,1.612669 -0.800199,0.359042 -2.394113,-0.271986 l -1.173654,-0.464648 q -1.096777,-0.434213 -1.553156,-0.105049 -0.213856,-0.268446 -0.198255,-0.48755 0.01048,-0.221132 0.109899,-0.472263 0.109568,-0.276757 0.401821,-0.415976 0.292254,-0.139219 0.56357,-0.120732 z m 2.083372,0.682523 q 0.196485,-0.301631 0.261414,-0.465635 0.600593,-1.517038 -0.393682,-1.91067 -0.738018,-0.29218 -1.076866,0.563716 -0.456532,1.153153 0.696621,1.609685 z"
         style="font-style:normal;font-variant:normal;font-weight:bold;font-stretch:normal;font-size:11.2889px;font-family:'Trebuchet MS';-inkscape-font-specification:'Trebuchet MS Bold';fill:#000000;stroke-width:0.264583"
         id="path1097" />
      <path
         d="m 76.871517,71.348428 2.847055,1.880478 q 0.630124,0.416197 1.080899,0.363816 0.447737,-0.04778 0.809251,-0.595116 0.167086,-0.252969 0.215893,-0.63691 0.04577,-0.379341 -0.05948,-0.680066 l -3.559969,-2.351358 0.759483,-1.14986 4.926003,3.253622 -0.546827,0.8279 -0.599689,-0.09222 q 0.242064,0.833695 -0.362484,1.748984 -0.580245,0.878494 -1.443353,1.035071 -0.861547,0.164214 -1.804432,-0.458562 l -3.021834,-1.995919 z"
         style="font-style:normal;font-variant:normal;font-weight:bold;font-stretch:normal;font-size:11.2889px;font-family:'Trebuchet MS';-inkscape-font-specification:'Trebuchet MS Bold';fill:#000000;stroke-width:0.264583"
         id="path1099" />
      <path
         d="m 73.22672,76.378351 q -0.08563,-0.350821 0.105524,-0.822374 0.191148,-0.463758 0.549859,-0.822221 0.674534,-0.674064 1.395623,-0.724484 0.724986,-0.04652 1.344502,0.573428 0.724717,0.725221 0.591865,1.67621 -0.136751,0.954885 -1.138804,1.956242 -0.171558,0.171438 -0.463945,0.346732 0.736406,0.736919 1.668276,-0.194304 0.549765,-0.549382 0.737046,-1.102788 l 0.966436,0.546012 q -0.261404,0.744367 -0.955433,1.437913 -0.955265,0.954601 -1.836144,0.96209 -0.876983,0.01139 -2.088741,-1.201214 l -0.892259,-0.89288 q -0.833815,-0.834394 -1.38343,-0.713757 -0.08953,-0.331335 0.01188,-0.526184 0.09751,-0.198748 0.288564,-0.389668 0.210548,-0.210402 0.53406,-0.221982 0.323512,-0.01158 0.565125,0.113229 z m 1.640419,1.454407 q 0.300191,-0.198677 0.424961,-0.32336 1.154115,-1.153313 0.398228,-1.909727 -0.561072,-0.561461 -1.212211,0.08922 -0.877284,0.876674 -6.1e-4,1.753958 z"
         style="font-style:normal;font-variant:normal;font-weight:bold;font-stretch:normal;font-size:11.2889px;font-family:'Trebuchet MS';-inkscape-font-specification:'Trebuchet MS Bold';fill:#000000;stroke-width:0.264583"
         id="path1101" />
      <path
         d="m 70.273758,76.283409 -0.108793,1.379136 q -0.969764,-0.136028 -1.70109,0.366709 -0.490578,0.337239 -0.708623,0.701177 -0.218044,0.363938 -0.04318,0.618312 0.296646,0.431527 1.000717,-0.05247 0.19078,-0.131149 0.536573,-0.435748 0.345792,-0.304599 0.536573,-0.435747 1.171937,-0.805628 1.749616,0.03471 0.165497,0.240747 0.129426,0.60668 -0.03607,0.365934 -0.220045,0.652939 1.202846,-0.03089 1.883571,0.959352 0.537085,0.781292 0.314474,1.683486 -0.219489,0.906736 -1.055289,1.481293 -0.654105,0.449652 -1.263337,0.507254 l -0.08918,0.823847 -1.27608,-0.172948 0.268879,-0.766776 q -0.575152,-0.233384 -0.974843,-0.814811 -0.571434,-0.831257 -0.406171,-1.68065 0.163844,-0.841729 0.93605,-1.372569 0.122645,-0.08431 0.342665,-0.202114 l 0.204974,-0.100772 q 0.0318,-0.02186 0.176592,-0.268552 0.143376,-0.23903 0.07156,-0.343505 -0.124903,-0.181696 -0.438328,0.03376 -0.140814,0.0968 -0.42557,0.392885 -0.284756,0.296085 -0.52096,0.45846 -1.657974,1.139745 -2.572892,-0.191176 -0.50586,-0.735868 -0.129949,-1.609666 0.372789,-0.87834 1.308522,-1.521594 1.117428,-0.768157 2.47414,-0.730905 z m 1.893313,5.186768 q -0.296646,-0.431527 -0.71396,-0.532612 -0.418735,-0.09342 -0.823008,0.184492 -0.404273,0.27791 -0.447442,0.682168 -0.04317,0.404259 0.262843,0.849413 0.25293,0.367934 0.664,0.459933 0.406527,0.09512 0.779003,-0.16093 0.390645,-0.268543 0.467315,-0.682452 0.07667,-0.413909 -0.188751,-0.800012 z"
         style="font-style:normal;font-variant:normal;font-weight:bold;font-stretch:normal;font-size:11.2889px;font-family:'Trebuchet MS';-inkscape-font-specification:'Trebuchet MS Bold';fill:#000000;stroke-width:0.264583"
         id="path1103" />
      <path
         d="m 62.226365,85.347256 3.860887,-1.695572 q -0.319032,-0.630489 -0.885198,-0.809289 -0.566167,-0.1788 -1.257594,0.124852 -0.863021,0.37901 -1.114934,1.025448 l -0.912889,-0.748966 q 0.429034,-0.832589 1.751325,-1.413295 1.236493,-0.543026 2.275151,-0.138268 1.035828,0.412022 1.605451,1.709078 0.560758,1.276869 0.12142,2.414997 -0.444385,1.140346 -1.549658,1.625745 -1.175931,0.516429 -2.195629,0.127425 -1.019699,-0.389003 -1.496232,-1.474089 -0.101956,-0.232158 -0.2021,-0.748066 z m 4.232155,-0.726805 -2.654676,1.165845 q 0.652082,1.128396 1.833059,0.609751 1.080039,-0.474317 0.821617,-1.775596 z"
         style="font-style:normal;font-variant:normal;font-weight:bold;font-stretch:normal;font-size:11.2889px;font-family:'Trebuchet MS';-inkscape-font-specification:'Trebuchet MS Bold';fill:#000000;stroke-width:0.264583"
         id="path1105" />
      <path
         d="m 51.925432,92.393313 0.463176,-1.240092 q 0.526892,0.427009 1.584954,0.31622 1.00324,-0.105048 1.556254,-1.016467 0.553589,-0.905937 0.41869,-2.194251 -0.134898,-1.288314 -0.806191,-1.98286 -0.676775,-0.693972 -1.669051,-0.590071 -1.134813,0.118825 -1.691271,0.997351 l -0.783892,-1.081801 q 0.774655,-1.017761 2.457687,-1.19399 1.683031,-0.176229 2.730958,0.833587 1.047927,1.009816 1.248265,2.923099 0.186562,1.78171 -0.71895,3.084746 -0.910419,1.309092 -2.522182,1.477858 -1.381511,0.144657 -2.268447,-0.333329 z"
         style="font-style:normal;font-variant:normal;font-weight:bold;font-stretch:normal;font-size:11.2889px;font-family:'Trebuchet MS';-inkscape-font-specification:'Trebuchet MS Bold';fill:#000000;stroke-width:0.264583"
         id="path1107" />
      <path
         d="m 49.92471,87.738264 q -0.12851,1.34435 -0.982975,2.115412 -0.859952,0.770537 -2.13297,0.648846 -1.338863,-0.127986 -2.001997,-1.010895 -0.663134,-0.882909 -0.52833,-2.293105 0.13428,-1.404709 0.97071,-2.160883 0.830943,-0.756698 2.142371,-0.631335 1.338863,0.127985 2.005386,1.033367 0.660511,0.910345 0.527805,2.298593 z m -1.426657,-0.136378 q 0.185683,-1.942449 -1.213539,-2.076205 -0.641996,-0.06137 -1.063378,0.40778 -0.42687,0.468624 -0.51604,1.401439 -0.183061,1.915014 1.210674,2.048244 0.641996,0.06137 1.068865,-0.407254 0.42687,-0.468625 0.513418,-1.374004 z"
         style="font-style:normal;font-variant:normal;font-weight:bold;font-stretch:normal;font-size:11.2889px;font-family:'Trebuchet MS';-inkscape-font-specification:'Trebuchet MS Bold';fill:#000000;stroke-width:0.264583"
         id="path1109" />
      <path
         d="m 36.977365,81.869886 -1.23804,3.485302 q -0.389309,1.095975 0.592393,1.444692 0.290875,0.103324 0.62186,0.02786 0.330985,-0.07546 0.519401,-0.260069 l 1.426236,-4.015109 1.298548,0.461266 -1.309997,3.687876 q -0.145761,0.410341 0.02388,0.739682 0.167797,0.334535 0.63008,0.498746 0.244127,0.08672 0.599579,0.0082 0.350258,-0.08032 0.557605,-0.252347 l 1.420702,-3.999527 1.298547,0.461267 -1.976066,5.562978 -0.893401,-0.317351 -0.09147,-0.582353 q -0.750534,0.400251 -1.607575,0.09582 -1.106363,-0.392999 -1.453308,-1.194792 -0.341915,0.188574 -0.835424,0.194608 -0.495355,0.01123 -0.931667,-0.143757 -0.92976,-0.330267 -1.253943,-1.04793 -0.331222,-0.714314 -9.55e-4,-1.644074 l 1.304462,-3.672293 z"
         style="font-style:normal;font-variant:normal;font-weight:bold;font-stretch:normal;font-size:11.2889px;font-family:'Trebuchet MS';-inkscape-font-specification:'Trebuchet MS Bold';fill:#000000;stroke-width:0.264583"
         id="path1111" />
      <path
         d="m 28.841018,76.589921 -2.214909,2.962136 q -0.696492,0.931462 0.13785,1.555333 0.247213,0.184851 0.585697,0.21082 0.338485,0.02597 0.573129,-0.09454 l 2.551602,-3.412416 1.103627,0.825227 -2.343645,3.134302 q -0.260772,0.348746 -0.196302,0.713558 0.06117,0.369227 0.454059,0.663008 0.207482,0.155142 0.570227,0.185485 0.358329,0.02704 0.60733,-0.07584 l 2.5417,-3.399173 1.103627,0.825227 -3.535273,4.72794 -0.759295,-0.567756 0.08515,-0.58331 q -0.835412,0.159959 -1.563807,-0.384691 -0.94029,-0.703093 -1.034152,-1.571674 -0.38243,0.07883 -0.855577,-0.0616 -0.476448,-0.136012 -0.847267,-0.413289 -0.790197,-0.590862 -0.88724,-1.372347 -0.104758,-0.78037 0.486105,-1.570568 l 2.333742,-3.121058 z"
         style="font-style:normal;font-variant:normal;font-weight:bold;font-stretch:normal;font-size:11.2889px;font-family:'Trebuchet MS';-inkscape-font-specification:'Trebuchet MS Bold';fill:#000000;stroke-width:0.264583"
         id="path1113" />
      <path
         d="m 24.417555,71.586727 -0.388553,0.308442 q 0.375915,0.07459 0.83279,0.366429 0.456875,0.291836 0.724191,0.628582 1.278321,1.610334 -0.431311,2.967479 l -3.000489,2.381857 -0.856783,-1.079313 2.918462,-2.316741 q 0.889353,-0.70599 0.255334,-1.504681 -0.291306,-0.366966 -0.731446,-0.531332 -0.44014,-0.164365 -0.772791,-0.06921 l -3.177497,2.522369 -0.856783,-1.079312 4.628093,-3.673886 z"
         style="font-style:normal;font-variant:normal;font-weight:bold;font-stretch:normal;font-size:11.2889px;font-family:'Trebuchet MS';-inkscape-font-specification:'Trebuchet MS Bold';fill:#000000;stroke-width:0.264583"
         id="path1115" />
      <path
         d="m 21.078252,65.829558 -3.064123,1.501023 q -0.678166,0.332214 -0.861503,0.74734 -0.185762,0.410176 0.102803,0.99924 0.133371,0.272256 0.439594,0.508941 0.303799,0.231735 0.616376,0.293443 l 3.831392,-1.876886 0.606229,1.23753 -5.301577,2.597086 -0.436485,-0.891021 0.383466,-0.470197 q -0.841356,-0.213922 -1.323914,-1.198996 -0.463159,-0.945472 -0.160637,-1.768851 0.295148,-0.825903 1.309922,-1.323011 l 3.252228,-1.593171 z"
         style="font-style:normal;font-variant:normal;font-weight:bold;font-stretch:normal;font-size:11.2889px;font-family:'Trebuchet MS';-inkscape-font-specification:'Trebuchet MS Bold';fill:#000000;stroke-width:0.264583"
         id="path1117" />
      <path
         d="m 11.895153,64.460187 q -0.09466,-0.316895 0.06619,-0.606557 0.153991,-0.293367 0.470886,-0.388022 0.316895,-0.09465 0.611839,0.06462 0.288085,0.155568 0.382739,0.472463 0.09465,0.316895 -0.05934,0.610262 -0.16085,0.289662 -0.477745,0.384317 -0.316895,0.09465 -0.60498,-0.06091 -0.294944,-0.159272 -0.389599,-0.476167 z m 8.051942,-1.662958 -4.573852,1.366183 0.216128,0.723577 -1.082724,0.323404 -0.615256,-2.059818 5.656577,-1.689587 z"
         style="font-style:normal;font-variant:normal;font-weight:bold;font-stretch:normal;font-size:11.2889px;font-family:'Trebuchet MS';-inkscape-font-specification:'Trebuchet MS Bold';fill:#000000;stroke-width:0.264583"
         id="path1119" />
      <path
         d="m 14.379301,60.462917 0.109003,0.67476 -1.093764,0.176691 -0.109003,-0.67476 -1.186272,0.191634 -0.720392,-1.27953 1.6869,-0.272508 -0.258442,-1.599834 1.093764,-0.17669 0.258442,1.599834 2.552117,-0.412277 q 0.625785,-0.101091 0.855337,-0.339184 0.224109,-0.237214 0.144994,-0.726959 -0.07911,-0.489745 -0.41432,-0.871117 l 1.251571,-0.202183 q 0.239726,0.447049 0.381254,1.323148 0.140649,0.870658 -0.273497,1.417752 -0.419588,0.547973 -1.328338,0.694775 z"
         style="font-style:normal;font-variant:normal;font-weight:bold;font-stretch:normal;font-size:11.2889px;font-family:'Trebuchet MS';-inkscape-font-specification:'Trebuchet MS Bold';fill:#000000;stroke-width:0.264583"
         id="path1121" />
      <path
         d="m 10.344038,54.64246 q -0.01026,-0.330571 0.219469,-0.569322 0.224048,-0.244089 0.554618,-0.254347 0.330571,-0.01026 0.574831,0.219298 0.23858,0.224219 0.248838,0.554789 0.01026,0.330571 -0.213789,0.57466 -0.229728,0.238751 -0.560298,0.249009 -0.330571,0.01026 -0.569151,-0.21396 -0.24426,-0.229557 -0.254518,-0.560127 z m 8.209181,0.456664 -4.771232,0.14806 0.02342,0.754803 -1.129449,0.03505 -0.06668,-2.148708 5.900682,-0.18311 z"
         style="font-style:normal;font-variant:normal;font-weight:bold;font-stretch:normal;font-size:11.2889px;font-family:'Trebuchet MS';-inkscape-font-specification:'Trebuchet MS Bold';fill:#000000;stroke-width:0.264583"
         id="path1123" />
      <path
         d="m 16.631262,46.536425 -0.54922,4.180881 q 0.704571,0.05364 1.150754,-0.338069 0.446182,-0.391708 0.544539,-1.140441 0.122767,-0.93455 -0.29974,-1.484849 l 1.113494,-0.392999 q 0.490009,0.798226 0.30191,2.230109 -0.175894,1.338975 -1.060083,2.017835 -0.888936,0.672676 -2.293494,0.488167 -1.382696,-0.181638 -2.128736,-1.146926 -0.745321,-0.970753 -0.588093,-2.167632 0.167279,-1.273393 1.028171,-1.944194 0.860892,-0.670801 2.035911,-0.516445 0.2514,0.03302 0.744587,0.214563 z m -1.570217,3.996722 0.377634,-2.874697 q -1.30299,-0.02662 -1.470987,1.252238 -0.153638,1.169554 1.093353,1.622459 z"
         style="font-style:normal;font-variant:normal;font-weight:bold;font-stretch:normal;font-size:11.2889px;font-family:'Trebuchet MS';-inkscape-font-specification:'Trebuchet MS Bold';fill:#000000;stroke-width:0.264583"
         id="path1125" />
      <path
         d="m 19.037272,45.915969 -0.888018,-0.809523 q 0.65929,-0.4326 0.902771,-1.170691 0.252114,-0.764266 -0.292294,-0.943854 -0.319317,-0.105335 -0.599449,0.05765 -0.280133,0.162981 -0.776877,0.736266 -1.080316,1.251427 -2.163897,0.893977 -0.727623,-0.240026 -0.947652,-0.927868 -0.225265,-0.689569 0.05966,-1.553293 0.288377,-0.874194 0.93482,-1.514183 l 0.891201,0.711899 q -0.508027,0.308368 -0.760142,1.072633 -0.226212,0.685745 0.318196,0.865333 0.214623,0.0708 0.461621,-0.09731 0.246997,-0.168107 0.78362,-0.809497 0.531389,-0.643118 1.051992,-0.831251 0.520603,-0.188133 1.106888,0.0053 0.77997,0.257295 1.038478,0.986851 0.254999,0.722595 -0.07309,1.717187 -0.184769,0.560112 -0.391236,0.869285 -0.199506,0.305665 -0.656587,0.741121 z"
         style="font-style:normal;font-variant:normal;font-weight:bold;font-stretch:normal;font-size:11.2889px;font-family:'Trebuchet MS';-inkscape-font-specification:'Trebuchet MS Bold';fill:#000000;stroke-width:0.264583"
         id="path1127" />
    </g>
  </g>
</svg>
