<?xml version="1.0" encoding="UTF-8" standalone="no"?>
<svg
   xmlns:dc="http://purl.org/dc/elements/1.1/"
   xmlns:cc="http://creativecommons.org/ns#"
   xmlns:rdf="http://www.w3.org/1999/02/22-rdf-syntax-ns#"
   xmlns:svg="http://www.w3.org/2000/svg"
   xmlns="http://www.w3.org/2000/svg"
   xmlns:sodipodi="http://sodipodi.sourceforge.net/DTD/sodipodi-0.dtd"
   xmlns:inkscape="http://www.inkscape.org/namespaces/inkscape"
   width="100mm"
   height="100mm"
   viewBox="0 0 100 100"
   version="1.1"
   id="svg8"
   sodipodi:docname="post.svg"
   inkscape:version="1.0.1 (3bc2e813f5, 2020-09-07)">
  <defs
     id="defs2" />
  <sodipodi:namedview
     id="base"
     pagecolor="#ffffff"
     bordercolor="#666666"
     borderopacity="1.0"
     inkscape:pageopacity="0.0"
     inkscape:pageshadow="2"
     inkscape:zoom="1.4"
     inkscape:cx="410.97195"
     inkscape:cy="226.80913"
     inkscape:document-units="mm"
     inkscape:current-layer="layer1"
     inkscape:document-rotation="0"
     showgrid="false"
     inkscape:window-width="1920"
     inkscape:window-height="1001"
     inkscape:window-x="305"
     inkscape:window-y="1431"
     inkscape:window-maximized="1" />
  <metadata
     id="metadata5">
    <rdf:RDF>
      <cc:Work
         rdf:about="">
        <dc:format>image/svg+xml</dc:format>
        <dc:type
           rdf:resource="http://purl.org/dc/dcmitype/StillImage" />
        <dc:title></dc:title>
      </cc:Work>
    </rdf:RDF>
  </metadata>
  <g
     inkscape:label="Layer 1"
     inkscape:groupmode="layer"
     id="layer1">
    <g
       aria-label="POST"
       transform="rotate(-111.81812,50.770212,53.899628)"
       id="text888"
       style="font-style:normal;font-variant:normal;font-weight:bold;font-stretch:normal;font-size:11.2889px;line-height:1.25;font-family:'Trebuchet MS';-inkscape-font-specification:'Trebuchet MS Bold';fill:#000000;fill-opacity:1;stroke:none;stroke-width:0.264583"
       inkscape:transform-center-x="-1.8562678"
       inkscape:transform-center-y="-33.909588">
      <path
         d="m 85.476502,56.160345 -2.953513,-0.322367 0.155502,-1.4247 8.022157,0.875596 q -0.09523,1.431279 -0.121542,1.672382 -0.207536,1.901426 -0.889548,2.71417 -0.677131,0.818821 -1.915524,0.683654 -2.761726,-0.301435 -2.406464,-3.556327 0.02632,-0.241103 0.108932,-0.642408 z m 3.83573,0.41866 -2.569939,-0.280502 q -0.07783,0.357468 -0.100558,0.565693 -0.10646,0.975372 0.167795,1.459987 0.279734,0.485214 1.014002,0.565357 1.249353,0.136364 1.46885,-1.874655 0.02452,-0.224664 0.01985,-0.43588 z"
         style="font-style:normal;font-variant:normal;font-weight:bold;font-stretch:normal;font-size:11.2889px;font-family:'Trebuchet MS';-inkscape-font-specification:'Trebuchet MS Bold';fill:#000000;stroke-width:0.264583"
         id="path1130" />
      <path
         d="m 85.825202,62.051412 q 1.620889,0.5911 2.416525,1.884548 0.798926,1.300516 0.256928,2.786763 -0.596765,1.636424 -1.927142,2.131098 -1.330376,0.494674 -3.163586,-0.173853 -1.83321,-0.668528 -2.579863,-1.967583 -0.748542,-1.293876 -0.142335,-2.956194 0.557107,-1.527675 1.922272,-1.956857 1.363277,-0.424003 3.217201,0.252078 z m -0.509894,1.398211 q -1.330889,-0.485343 -2.225365,-0.301087 -0.894476,0.184257 -1.207967,1.043898 -0.368256,1.009819 0.153758,1.798644 0.520126,0.794004 1.882087,1.290679 2.666958,0.972575 3.384586,-0.995277 0.328599,-0.901069 -0.220769,-1.647065 -0.54419,-0.744107 -1.76633,-1.189792 z"
         style="font-style:normal;font-variant:normal;font-weight:bold;font-stretch:normal;font-size:11.2889px;font-family:'Trebuchet MS';-inkscape-font-specification:'Trebuchet MS Bold';fill:#000000;stroke-width:0.264583"
         id="path1132" />
      <path
         d="m 79.409259,68.269789 0.791369,1.141606 q -0.96077,0.389748 -1.406615,1.079513 -0.685225,1.060107 0.05546,1.538867 0.347197,0.224419 0.82357,0.17791 0.476373,-0.04651 1.370924,-0.57751 0.896187,-0.52338 1.322712,-0.634927 0.428161,-0.103925 0.87111,-0.02764 0.439956,0.08091 0.861222,0.353206 0.786979,0.508682 0.934421,1.417846 0.14445,0.913793 -0.439039,1.816505 -0.760031,1.17584 -1.555891,1.442462 L 82.23793,74.961645 q 0.863609,-0.340972 1.318431,-1.044624 0.269302,-0.416637 0.196709,-0.791729 -0.07096,-0.367471 -0.422783,-0.594882 -0.583291,-0.377023 -2.047712,0.507603 -0.773169,0.465064 -1.250052,0.583441 -0.472254,0.121369 -0.948963,0.03639 -0.47208,-0.08198 -0.93038,-0.378217 -0.824013,-0.53262 -0.934475,-1.529459 -0.113454,-0.992209 0.592717,-2.084722 0.613411,-0.949005 1.597837,-1.39566 z"
         style="font-style:normal;font-variant:normal;font-weight:bold;font-stretch:normal;font-size:11.2889px;font-family:'Trebuchet MS';-inkscape-font-specification:'Trebuchet MS Bold';fill:#000000;stroke-width:0.264583"
         id="path1134" />
      <path
         d="m 78.143904,80.253505 -4.854899,-4.764159 1.003794,-1.022912 4.854898,4.764159 1.799107,-1.833374 0.908819,0.891832 -4.683084,4.772279 -0.908818,-0.891832 z"
         style="font-style:normal;font-variant:normal;font-weight:bold;font-stretch:normal;font-size:11.2889px;font-family:'Trebuchet MS';-inkscape-font-specification:'Trebuchet MS Bold';fill:#000000;stroke-width:0.264583"
         id="path1136" />
    </g>
  </g>
</svg>
