<svg id="layer1" xmlns="http://www.w3.org/2000/svg" width="265.208" height="212" viewBox="0 0 265.208 212">
  <g id="Group" transform="translate(0 25.378)">
    <text id="_4" data-name="4" transform="translate(0 146.622)" fill="#fff" font-size="159" font-family="SegoeUI, Segoe UI" letter-spacing="-0.047em"><tspan x="0" y="0">4</tspan></text>
    <text id="ums" transform="translate(97.208 117.611)" fill="#fff" font-size="97" font-family="TrebuchetMS-Bold, Trebuchet MS" font-weight="700" letter-spacing="-0.075em"><tspan x="0" y="0">ums</tspan></text>
  </g>
  <path id="path993" d="M11.663,55.57S29.224,5.05,36.788,6.671a26.783,26.783,0,0,1,11.887,5.673s10.807,49.17-4.052,49.44-32.96-6.214-32.96-6.214Z" transform="translate(14.073 75.963)" fill="#fff" stroke="#fff" stroke-width="0.265"/>
  <g id="g991" transform="translate(30.46 89.446)">
    <g id="g973" transform="translate(0 0)">
      <path id="path971" d="M49.132,15.045a10.7,10.7,0,0,0-9.627,6.077c-1.959,3.853-1.78,8.487.449,11.532.14.191.306.395.492.6-3.928,1.056-9,2.636-9.7,9.2-1.177,11.146-.5,18.218,2.027,21.018a4.213,4.213,0,0,0,3.187,1.474,5.562,5.562,0,0,0,3.15-.882c.021.563.034,1.154.053,1.726.168-.16.34-.316.508-.476.081-.077.16-.156.245-.229a1.477,1.477,0,0,0,.154-.114,1.305,1.305,0,0,0,.12-.191,3.287,3.287,0,0,1,.783-.912c.129-.081.216-.128.313-.183a.188.188,0,0,1,.137-.109.052.052,0,0,1,.031.01c.058-.03.1-.041.154-.062-.263-.561-.908-1.291.721-1.22a2.906,2.906,0,0,1,.575-.146c-.126-3.141-.257-6.032-.39-7.835,0-.03-.019-.053-.022-.083.129-2.5.132-5.6.028-9.518a1.94,1.94,0,0,0-1.94-1.887c-.015,0-.033,0-.05,0a1.94,1.94,0,0,0-1.888,1.99c.184,6.893.149,14.167-1.485,15.846a1.472,1.472,0,0,1-1.2.4c-.053,0-.134,0-.3-.189-1.222-1.356-2.23-6.888-1.053-18.019.409-3.873,3.023-4.843,7.282-5.979,1.025-.274,2.072-.567,3.042-.932a11.9,11.9,0,0,0,3.008.365,16.231,16.231,0,0,0,2.668-.232,12.155,12.155,0,0,0,2.664-.785c7.53,1.537,11.495-2.963,14.125-5.976,1.578-1.808,2.593-2.908,3.494-2.729.371.074.356,1.05.353,1.16-.086,3.443-4.5,10.82-14.3,12.27a1.858,1.858,0,0,0-.269.1,1.911,1.911,0,0,0-.371.134,1.85,1.85,0,0,0-.287.214,1.294,1.294,0,0,0-.467.563,1.858,1.858,0,0,0-.16.337,1.885,1.885,0,0,0-.059.384,1.829,1.829,0,0,0-.043.282c.149,3.076.11,9.006.027,15.3a2.841,2.841,0,0,1,.482.01l.25-.08a.486.486,0,0,1,.034-.046l.028-.025a.905.905,0,0,1,.179-.18l-.022,0c-.2.062-.444.446-.569.276s.371-.194.557-.291l.077-.016.369-.078.152-.151c-.266.116-.424.175-.52.228l.6-.556c.066-.01.134-.015.2-.022a1.135,1.135,0,0,1,.154-.077c.159-.155.511-.5.522-.514a.09.09,0,0,1,0-.01l-.022.013a4.616,4.616,0,0,1-.514.418c-.087.056.15-.143.229-.208s.167-.128.251-.189a.345.345,0,0,1,.034-.021c.086-.078.029-.013.018,0-.061.119,0-.008.225-.2a5.085,5.085,0,0,1,1.185-.749c.049-4.4.075-8.535,0-11.345C69.4,41.283,74.984,33.2,75.118,27.853c.068-2.68-1.26-4.621-3.469-5.062-3.161-.631-5.2,1.717-7.176,3.98-1.834,2.1-3.723,4.222-6.694,4.8a9.705,9.705,0,0,0,1.35-5.95c-.412-5.074-4.34-10.56-9.968-10.573Zm8.153,41.292-.071.068c.168-.017.338-.033.505-.053.058-.049.121-.088.183-.131-.187.02-.394.041-.505.065a.549.549,0,0,0-.112.052Zm-.071.068-.083.009c-.056.038-.111.078-.168.112-.008,0-.008.015-.01.024-.013.046-.019.1-.03.143.165-.163.189-.188.291-.288Zm-.885.588c-.015.008-.029.017-.043.027l.018,0,.025-.024Zm-.025.024-.2.183c-.019.024-.035.039-.058.069l.038-.012a1.681,1.681,0,0,1,.241-.229c.013-.01.132-.034.2-.052a1.478,1.478,0,0,0-.22.04Zm.22-.04c.041,0,.082-.009.123-.012.023-.023.007-.005.03-.028-.063.016-.1.026-.152.04Zm.123-.012-.027.027c0,.023-.016.073-.021.1l.257-.083c0-.02.009-.038.012-.058-.009,0-.019,0-.028,0-.064.006-.129.01-.194.015Zm.222-.013c.04,0,.081,0,.121.008.007,0,.026,0,.019,0l-.152.049c-.007.042-.013.085-.019.127.075-.021.148-.046.223-.068l.018-.015a4.675,4.675,0,0,1,.4-.468c-.084,0-.189.01-.245.006-.139.07-.215.1-.315.145-.01.046-.021.092-.03.139-.036.008.087-.013,0,.008,0,.024-.011.046-.015.069Zm-.269.14-.511.165c-.033.037-.065.076-.1.115.025,0,.049,0,.074.009.167-.062.335-.121.508-.17.007-.037.02-.087.025-.12ZM49.132,18.923h.018c3.318.008,5.837,3.629,6.112,7.008.131,1.618-.123,5.473-5.286,6.328-3.217.526-5.6-.126-6.891-1.9-1.389-1.894-1.437-4.9-.124-7.482a6.9,6.9,0,0,1,6.171-3.957Zm6.83,38.486-.016.021.047-.019-.031,0ZM39.263,67.4c-.017,0-.032.009-.049.01,0,.01,0,.021,0,.031.017-.013.03-.03.047-.041Z" transform="translate(-30.189 -15.045)" fill="#fff"/>
    </g>
    <path id="path995" d="M10.989,16.973c1.778.4,7.288,5.7,16.059-1.949" transform="translate(0.076 24.317)" fill="none" stroke="#fff" stroke-width="1.39"/>
  </g>
  <path id="path997" d="M15.014,31.017s1.394,1.685,4.3-.746a9.082,9.082,0,0,0,1.712-1.49,27.308,27.308,0,0,0,1.967-4.222" transform="translate(20.302 109.29)" fill="none" stroke="#fff" stroke-width="0.723"/>
  <path id="path1036" d="M26.026,17.338s2.9-5.614,5.133-3.917c2.656,2.019-4.593,7.7-4.593,7.7" transform="translate(40.775 87.989)" stroke="#000" stroke-width="0.265"/>
  <path id="path1391" d="M22.881,23.142l1.213-.052.473-.02" transform="translate(34.928 106.52)" fill="#f9f9f9" stroke="#fff" stroke-width="0.265"/>
  <path id="path1391-9" d="M22.783,24.178l1.414-.8.552-.311" transform="translate(34.746 106.52)" fill="#f9f9f9" stroke="#fff" stroke-width="0.345"/>
  <path id="path1408" d="M25.037,22.376l-.5,1.981L22.9,27.922" transform="translate(34.962 105.232)" fill="none" stroke="#fff" stroke-width="0.265"/>
  <path id="path1490" d="M54.639,99.644a9.972,9.972,0,0,1-6.758-5.313c-1.051-2.161-1.27-3.619-1.45-9.639L46.22,77.6l-9.26.275c-15.022.447-22.763-1.119-27.171-5.5-4.207-4.177-4.363-9.32-.507-16.765,1.24-2.394,8.928-14.666,17.083-27.269,14.234-22,14.926-22.959,17.267-24C48.3,2.27,62.21,2.6,65.7,4.868c2.418,1.57,2.972,4.039,3.2,14.243.147,6.67.436,9.957.982,11.158.979,2.155.973,3.271-.036,6.132-.581,1.646-.81,4.568-.81,10.3v8l2.567.353c9.151,1.257,13.1,4.717,13.1,11.472,0,6.363-3.584,9.791-11.531,11.026l-3.988.62-.319,6.264a54.961,54.961,0,0,1-.916,8.3c-1.55,5.305-7.363,8.318-13.312,6.9Zm7.353-6.408c2.213-2.213,2.943-6.411,2.484-14.284l-.37-6.349,4.76,0c8.184-.005,10.974-1.584,10.974-6.211s-2.789-6.206-10.993-6.211l-4.779,0,.39-8.091.39-8.091L60.7,46.141a25.6,25.6,0,0,1-4.931,2.148c-.626,0-.781,1.011-.781,5.1a29.454,29.454,0,0,1-.529,6.488c-.621,1.634-4.752,4.4-7.838,5.245a13.7,13.7,0,0,1-7.953-.86c-.722-.313-1.164.119-2.05,2.005-1.818,3.868-5.4,4.816-7.727,2.047-2.1-2.49-2.727-6.252-2.4-14.3.308-7.613.782-9.514,2.93-11.766,1.3-1.363,2.115-1.808,5.711-3.118l1.486-.541L35.537,36.82C33.511,33.5,34.39,27.2,37.316,24.063c2.826-3.03,7.93-4.214,11.078-2.57a12.646,12.646,0,0,1,5.213,5.839c.971,2.324,1.1,6.486.255,8.069-1.719,3.212,2.077,1.3,7.115-3.585l3.892-3.774-.353-8.18C64.1,10.13,63.676,8.556,61.371,8.1c-2.7-.539-11.669-.378-14.115.254-2.561.662-2.974,1.159-13.193,15.895C20.6,43.66,11.774,59.31,11.588,64.1c-.169,4.377,2.578,6.807,9.437,8.348,4.272.96,22.063,1.283,27.071.492l2.567-.405v7.229c0,11.633,1.6,14.99,7.139,14.99,2.207,0,2.934-.264,4.191-1.52ZM33.775,64.956c.4-.832.764-4.33.882-8.445.208-7.252.409-8.223,1.7-8.223,1.345,0,1.878,1.979,1.878,6.975,0,4.863.007,4.888,1.594,5.709a10.536,10.536,0,0,0,8.942-.416l2.161-1.223.152-6.28c.1-4.126.378-6.461.81-6.808a16.742,16.742,0,0,1,3.641-1.382A22.9,22.9,0,0,0,66.08,37.889c1.983-2.205,2.438-3.076,2.307-4.414-.141-1.44-.4-1.69-1.9-1.835-1.537-.149-1.953.138-3.674,2.533-3.283,4.57-7.2,6.536-12.963,6.512a59.2,59.2,0,0,0-13.113,1.407c-6.314,1.835-6.879,2.967-6.867,13.76.009,8.361.578,11.032,2.282,10.7a3.023,3.023,0,0,0,1.62-1.6ZM47.639,37.269A5.375,5.375,0,0,0,51.2,31.941c0-4.467-2.824-7.969-6.422-7.965-4.047,0-7.086,3.472-7.086,8.085a8.9,8.9,0,0,0,.554,3.285C39.565,37.8,44.125,38.737,47.639,37.269Z" transform="translate(4.487 69.14)" fill="#fff"/>
  <path id="path2053" d="M53.626,99.381c-5.215-1.685-6.969-5.306-7.471-15.427l-.308-6.214H33.9c-9.92,0-12.621-.172-15.908-1.014C10.427,74.789,6.548,70.7,6.548,64.678c0-3.548,1.45-7.474,4.779-12.943C17.915,40.915,39.908,7.317,41.394,5.8c2.293-2.334,6.323-3.112,14.324-2.764,7.332.319,10.413,1.319,11.7,3.8.975,1.886,1.766,9.569,1.794,17.436.011,3.212.263,5.674.615,6.026.382.382.467,1.635.238,3.485-.2,1.589-.481,6.929-.631,11.867l-.273,8.978,1.25.335a12.937,12.937,0,0,0,2.716.342,15.7,15.7,0,0,1,9.009,4.072A10.736,10.736,0,0,1,81.8,73.9c-2.038,2.038-5.165,3.275-9.736,3.851-2.422.305-2.841.528-2.864,1.523-.279,11.8-1.811,16.956-5.675,19.1a13.492,13.492,0,0,1-9.9,1.009Zm7.9-5.939c2.293-1.93,2.9-4.724,2.873-13.234l-.024-7.478,5.533-.224c6.747-.273,8.735-1.12,9.549-4.07a7.43,7.43,0,0,0-.007-4.092c-.816-3.029-3.507-4.136-10.088-4.152l-5-.012V43.9l-1.7,1.209a28.787,28.787,0,0,1-4.728,2.439l-3.03,1.23L54.773,53.8a57,57,0,0,1-.4,6.184c-.344,1.494-4.688,4.263-7.975,5.085a13.121,13.121,0,0,1-8.116-.865c-.591-.227-1.006.229-1.46,1.6-1.275,3.863-5.33,5.316-7.837,2.809A10.179,10.179,0,0,1,27,64.969c-.874-2.968-.825-15.5.074-18.825A9.77,9.77,0,0,1,33.81,39.6c1.88-.555,2.393-.931,2.122-1.556-2.358-5.445-2.286-8.492.3-12.563,3.05-4.809,9.515-6.168,13.8-2.9,3.47,2.647,5.336,8.1,4.077,11.918-1.285,3.895.845,3.151,6.219-2.171l4.04-4-.023-7.17c-.025-7.545-.51-11.431-1.558-12.482-.862-.864-12.748-1.159-15.612-.388-1.994.537-2.7,1.248-6.634,6.662C29.117,30.668,16.8,50.3,13.245,58.44c-2.785,6.38-2.3,9.553,1.814,11.865,4.13,2.321,8.745,3.018,20.126,3.038,5.8.01,11.641-.159,12.991-.375l2.454-.393-.018,7.446c-.02,8.276.571,11.138,2.749,13.317,1.965,1.965,5.892,2.015,8.163.1ZM33.4,65.221c.747-1.14.989-2.95,1.155-8.631.222-7.581.754-9.221,2.517-7.758.611.507.813,1.887.819,5.6a23.863,23.863,0,0,0,.416,5.573c1.125,1.769,6.472,2.343,9.454,1.016,3.387-1.508,3.34-1.4,3.63-8.492l.27-6.607,2.561-.652c4.014-1.021,6.892-2.746,10.5-6.295,3.457-3.4,4.456-5.375,3.372-6.681-1.3-1.572-3.017-.845-5.926,2.512-3.373,3.894-6.215,5.482-10.241,5.724-13.9.834-18.679,1.915-20.746,4.688-1.05,1.409-1.137,2.22-1.137,10.588,0,6.887.178,9.277.742,9.956,1.021,1.23,1.512,1.127,2.61-.549ZM47.561,37.173c4.461-1.785,4.981-7.314,1.057-11.238-1.957-1.957-2.262-2.079-4.556-1.82-2.964.334-4.723,1.827-5.955,5.053-2.42,6.338,2.727,10.7,9.454,8Z" transform="translate(4.565 69.137)" fill="#fff"/>
  <path id="path2055" d="M53.626,99.381c-5.215-1.685-6.969-5.306-7.471-15.427l-.308-6.214H33.9c-9.92,0-12.621-.172-15.908-1.014C10.427,74.789,6.548,70.7,6.548,64.678c0-3.589,1.451-7.474,4.937-13.213C17.935,40.845,39.872,7.355,41.4,5.8c2.292-2.334,6.321-3.112,14.323-2.764,9.456.411,11.879,1.79,12.717,7.238.415,2.694,1.4,19.028,1.379,22.886-.008,1.634-.164,7.133-.346,12.218l-.331,9.246,1.26.337a12.98,12.98,0,0,0,2.726.345,17.614,17.614,0,0,1,4.425,1.115c5.412,2.025,8.049,6.7,6.911,12.243-1.091,5.319-4.339,7.858-11.393,8.9l-3.748.556-.327,5.21c-.768,12.242-2.927,15.7-10.308,16.511a13.077,13.077,0,0,1-5.058-.467Zm7.929-5.964c2.2-1.849,2.809-4.774,2.809-13.424V72.729l5.538-.224c6.753-.273,8.74-1.119,9.555-4.07a7.421,7.421,0,0,0,.005-4.048c-.8-2.987-2.773-3.833-9.56-4.107l-5.538-.224V43.9l-1.7,1.209a28.789,28.789,0,0,1-4.728,2.439l-3.03,1.23L54.773,53.8a57.005,57.005,0,0,1-.4,6.184c-.357,1.55-4.807,4.335-8.167,5.11a8.814,8.814,0,0,1-5.5-.19c-2.984-.875-3.423-.7-4.132,1.609a5.629,5.629,0,0,1-4.724,3.391c-2.056,0-3.963-1.943-4.845-4.936-.874-2.968-.825-15.5.074-18.825.6-2.206,3.643-5.957,4.841-5.957a12.458,12.458,0,0,0,2.365-.806l1.929-.806L35.093,36.05a10.988,10.988,0,0,1,1.026-10.38C40.249,19,49.5,19.248,53.007,26.12a11.341,11.341,0,0,1,1.1,8.374,4.128,4.128,0,0,0-.33,2.308c.607.607,3.107-1.159,6.854-4.84l3.736-3.669V21.616c0-6.832-.66-12.023-1.656-13.019-.8-.8-12.779-1.058-15.475-.332-2.551.687-2.571.712-12.958,15.679C21.459,42.408,12.408,58.123,11.641,63.236c-.738,4.922,2.659,7.951,10.577,9.433,3.8.71,21.944.912,25.951.289l2.447-.381,0,7.445c0,8.578.625,11.358,2.991,13.349a6.275,6.275,0,0,0,7.946.047ZM33.4,65.221c.747-1.14.989-2.95,1.155-8.631.222-7.581.754-9.221,2.517-7.758.613.509.81,1.886.81,5.656,0,4.289.15,5.119,1.075,5.956,1.347,1.219,5.768,1.684,8.182.861,3.81-1.3,3.953-1.593,4.251-8.776l.27-6.524,2.972-.925a20.779,20.779,0,0,0,9.793-5.811c3.533-3.369,4.761-5.656,3.715-6.917-1.347-1.623-3.032-.929-5.968,2.461-4.188,4.835-5.651,5.405-15.912,6.206-9.639.753-13.254,1.761-15.076,4.205-1.05,1.409-1.137,2.22-1.137,10.588,0,6.887.178,9.277.742,9.956,1.021,1.23,1.512,1.127,2.61-.549ZM48.6,36.567c3.518-2.6,3.555-7.095.088-10.562-1.542-1.542-2.463-2.027-3.847-2.026a7.313,7.313,0,0,0-6.508,4.68c-1.7,3.844-.663,7.493,2.527,8.885,1.732.756,6.151.2,7.74-.978Z" transform="translate(4.565 69.137)" fill="#fff"/>
  <path id="path2091" d="M54.482,99.449a9.538,9.538,0,0,1-5.794-3.86c-1.632-2.543-2.091-4.978-2.513-13.334l-.229-4.539L36.49,77.7c-13.549-.02-17.4-.425-21.843-2.3-4.266-1.8-6.967-4.687-7.839-8.385-.927-3.933.492-8.529,4.872-15.781C16.6,43.1,35.659,13.761,39.854,7.88c1.671-2.343,2.4-3.023,3.982-3.723,2.147-.949,3.729-1.14,9.391-1.133,9.038.011,12.576.917,14.03,3.591.97,1.784,1.356,4.489,1.85,12.95.609,10.437.525,9.6,1.081,10.739a7.51,7.51,0,0,1,0,5.56c-.475,1.4-.5,1.731-.781,9.361-.38,10.422-.431,9.274.419,9.5.39.1,1.717.321,2.948.481,6.417.836,10.574,3.885,11.654,8.549a14.691,14.691,0,0,1-.084,5.446c-1.3,4.823-4.777,7.236-12.012,8.33a19.493,19.493,0,0,0-2.5.5c-.617.24-.654.423-.808,3.941a86.883,86.883,0,0,1-.962,9.267,10.213,10.213,0,0,1-4.771,7.152,14.188,14.188,0,0,1-8.8,1.058Zm5.423-5.107a6.488,6.488,0,0,0,3.252-3.03c1.013-2.141,1.125-3.267,1.129-11.345l0-7.395,4.255-.112c6.011-.158,8.219-.613,9.709-2a6.091,6.091,0,0,0,1.44-5.278c-.457-2.861-1.941-4.153-5.484-4.774-.568-.1-3.044-.238-5.5-.307l-4.471-.126.1-7.914c.056-4.353.047-7.914-.02-7.914a9.532,9.532,0,0,0-1.3.868,24.35,24.35,0,0,1-6.2,3.028c-.884.28-1.65.546-1.7.591s-.137,2.479-.19,5.409c-.091,5.082-.116,5.373-.54,6.313-.385.852-.674,1.143-2.125,2.137-4.429,3.033-8.156,3.717-12.456,2.286a8.832,8.832,0,0,0-2-.516,7.45,7.45,0,0,0-.927,1.813c-1.131,2.728-2.58,3.844-5.025,3.871-3.288.036-5.037-2.781-5.688-9.159-.438-4.3.148-13.351,1.021-15.756,1.075-2.961,3.588-4.945,7.854-6.2a1.873,1.873,0,0,0,.909-.466,2.6,2.6,0,0,0-.5-1.146,10.979,10.979,0,0,1-1.443-4.7,12.168,12.168,0,0,1,4.982-10.369,8.5,8.5,0,0,1,5.724-1.735c2.134-.008,2.2,0,3.673.707a11.756,11.756,0,0,1,5.545,14.53c-.419.99-.2,1.207.822.81,1.45-.563,3.08-1.877,5.4-4.348a36.876,36.876,0,0,1,3.259-3.149l1.013-.752L64.333,21.2c-.126-9.59-.56-12.245-2.109-12.893-1.57-.656-11.369-.84-14.387-.27-2.8.528-3.518,1.309-10.88,11.812C27.112,33.894,18.328,47.936,14.388,55.924c-3.48,7.056-3.719,10.189-.988,12.922,1.821,1.822,5.036,3.144,9.162,3.768,4.776.722,22.018.851,26.03.194.936-.153,1.755-.282,1.82-.285s.166,3.163.224,7.038c.112,7.416.259,8.924,1.085,11.134a6.127,6.127,0,0,0,3.751,3.687,9.4,9.4,0,0,0,4.432-.04ZM33.068,65.654c1.045-1.371,1.436-4.533,1.436-11.638v-4.79l.553-.553a1.637,1.637,0,0,1,2.466-.021c.515.515.536.615.673,3.168.078,1.45.094,3.594.037,4.765-.151,3.062-.043,3.335,1.627,4.121a9.378,9.378,0,0,0,9.432-.718c1.775-1.14,1.7-.85,1.8-7.382a53.776,53.776,0,0,1,.284-6.242c.265-.693.57-.838,3.067-1.455,4.107-1.016,6.4-2.4,10.275-6.192,2.92-2.859,3.638-3.929,3.638-5.419a1.345,1.345,0,0,0-.582-1.33c-1.424-1.2-3.21-.282-5.244,2.687A13.873,13.873,0,0,1,55.4,40.107a10.051,10.051,0,0,1-4.17.48,14.622,14.622,0,0,0-3.688.273,29.265,29.265,0,0,1-4.53.447,22.644,22.644,0,0,0-5.743.736c-3.851.993-5.732,2.14-6.524,3.979-.628,1.46-.842,4.779-.732,11.365.085,5.116.14,5.9.481,6.966a5.853,5.853,0,0,0,.712,1.56c.52.574,1.307.464,1.859-.26Zm13.972-28.5a5.43,5.43,0,0,0,2.182-1.234c1.7-1.532,2.23-3.426,1.661-5.978a8.187,8.187,0,0,0-2.321-4.22,4.9,4.9,0,0,0-3.942-1.684A6.966,6.966,0,0,0,38.426,28.4,8.775,8.775,0,0,0,38,34.132a5.231,5.231,0,0,0,3.94,3.4,13.274,13.274,0,0,0,5.1-.384Z" transform="translate(4.545 69.253)" fill="none"/>
  <path id="path2093" d="M54.482,99.449a9.538,9.538,0,0,1-5.794-3.86c-1.632-2.543-2.091-4.978-2.513-13.334l-.229-4.539L36.49,77.7c-13.549-.02-17.4-.425-21.843-2.3-4.266-1.8-6.967-4.687-7.839-8.385-.927-3.933.492-8.529,4.872-15.781C16.6,43.1,35.659,13.761,39.854,7.88c1.671-2.343,2.4-3.023,3.982-3.723,2.147-.949,3.729-1.14,9.391-1.133,9.038.011,12.576.917,14.03,3.591.97,1.784,1.356,4.489,1.85,12.95.609,10.437.525,9.6,1.081,10.739a7.51,7.51,0,0,1,0,5.56c-.475,1.4-.5,1.731-.781,9.361-.38,10.422-.431,9.274.419,9.5.39.1,1.717.321,2.948.481,6.417.836,10.574,3.885,11.654,8.549a14.691,14.691,0,0,1-.084,5.446c-1.3,4.823-4.777,7.236-12.012,8.33a19.493,19.493,0,0,0-2.5.5c-.617.24-.654.423-.808,3.941a86.883,86.883,0,0,1-.962,9.267,10.213,10.213,0,0,1-4.771,7.152,14.188,14.188,0,0,1-8.8,1.058Zm5.423-5.107a6.488,6.488,0,0,0,3.252-3.03c1.013-2.141,1.125-3.267,1.129-11.345l0-7.395,4.255-.112c6.011-.158,8.219-.613,9.709-2a6.091,6.091,0,0,0,1.44-5.278c-.457-2.861-1.941-4.153-5.484-4.774-.568-.1-3.044-.238-5.5-.307l-4.471-.126.1-7.914c.056-4.353.047-7.914-.02-7.914a9.532,9.532,0,0,0-1.3.868,24.35,24.35,0,0,1-6.2,3.028c-.884.28-1.65.546-1.7.591s-.137,2.479-.19,5.409c-.091,5.082-.116,5.373-.54,6.313-.385.852-.674,1.143-2.125,2.137-4.429,3.033-8.156,3.717-12.456,2.286a8.832,8.832,0,0,0-2-.516,7.45,7.45,0,0,0-.927,1.813c-1.131,2.728-2.58,3.844-5.025,3.871-3.288.036-5.037-2.781-5.688-9.159-.438-4.3.148-13.351,1.021-15.756,1.075-2.961,3.588-4.945,7.854-6.2a1.873,1.873,0,0,0,.909-.466,2.6,2.6,0,0,0-.5-1.146,10.979,10.979,0,0,1-1.443-4.7,12.168,12.168,0,0,1,4.982-10.369,8.5,8.5,0,0,1,5.724-1.735c2.134-.008,2.2,0,3.673.707a11.756,11.756,0,0,1,5.545,14.53c-.419.99-.2,1.207.822.81,1.45-.563,3.08-1.877,5.4-4.348a36.876,36.876,0,0,1,3.259-3.149l1.013-.752L64.333,21.2c-.126-9.59-.56-12.245-2.109-12.893-1.57-.656-11.369-.84-14.387-.27-2.8.528-3.518,1.309-10.88,11.812C27.112,33.894,18.328,47.936,14.388,55.924c-3.48,7.056-3.719,10.189-.988,12.922,1.821,1.822,5.036,3.144,9.162,3.768,4.776.722,22.018.851,26.03.194.936-.153,1.755-.282,1.82-.285s.166,3.163.224,7.038c.112,7.416.259,8.924,1.085,11.134a6.127,6.127,0,0,0,3.751,3.687,9.4,9.4,0,0,0,4.432-.04ZM33.068,65.654c1.045-1.371,1.436-4.533,1.436-11.638v-4.79l.553-.553a1.637,1.637,0,0,1,2.466-.021c.515.515.536.615.673,3.168.078,1.45.094,3.594.037,4.765-.151,3.062-.043,3.335,1.627,4.121a9.378,9.378,0,0,0,9.432-.718c1.775-1.14,1.7-.85,1.8-7.382a53.776,53.776,0,0,1,.284-6.242c.265-.693.57-.838,3.067-1.455,4.107-1.016,6.4-2.4,10.275-6.192,2.92-2.859,3.638-3.929,3.638-5.419a1.345,1.345,0,0,0-.582-1.33c-1.424-1.2-3.21-.282-5.244,2.687A13.873,13.873,0,0,1,55.4,40.107a10.051,10.051,0,0,1-4.17.48,14.622,14.622,0,0,0-3.688.273,29.265,29.265,0,0,1-4.53.447,22.644,22.644,0,0,0-5.743.736c-3.851.993-5.732,2.14-6.524,3.979-.628,1.46-.842,4.779-.732,11.365.085,5.116.14,5.9.481,6.966a5.853,5.853,0,0,0,.712,1.56c.52.574,1.307.464,1.859-.26Zm13.972-28.5a5.43,5.43,0,0,0,2.182-1.234c1.7-1.532,2.23-3.426,1.661-5.978a8.187,8.187,0,0,0-2.321-4.22,4.9,4.9,0,0,0-3.942-1.684A6.966,6.966,0,0,0,38.426,28.4,8.775,8.775,0,0,0,38,34.132a5.231,5.231,0,0,0,3.94,3.4,13.274,13.274,0,0,0,5.1-.384Z" transform="translate(4.545 69.253)" fill="none"/>
  <path id="path2095" d="M54.482,99.449a9.538,9.538,0,0,1-5.794-3.86c-1.632-2.543-2.091-4.978-2.513-13.334l-.229-4.539L36.49,77.7c-13.549-.02-17.4-.425-21.843-2.3-4.266-1.8-6.967-4.687-7.839-8.385-.927-3.933.492-8.529,4.872-15.781C16.6,43.1,35.659,13.761,39.854,7.88c1.671-2.343,2.4-3.023,3.982-3.723,2.147-.949,3.729-1.14,9.391-1.133,9.038.011,12.576.917,14.03,3.591.97,1.784,1.356,4.489,1.85,12.95.609,10.437.525,9.6,1.081,10.739a7.51,7.51,0,0,1,0,5.56c-.475,1.4-.5,1.731-.781,9.361-.38,10.422-.431,9.274.419,9.5.39.1,1.717.321,2.948.481,6.417.836,10.574,3.885,11.654,8.549a14.691,14.691,0,0,1-.084,5.446c-1.3,4.823-4.777,7.236-12.012,8.33a19.493,19.493,0,0,0-2.5.5c-.617.24-.654.423-.808,3.941a86.883,86.883,0,0,1-.962,9.267,10.213,10.213,0,0,1-4.771,7.152,14.188,14.188,0,0,1-8.8,1.058Zm5.423-5.107a6.488,6.488,0,0,0,3.252-3.03c1.013-2.141,1.125-3.267,1.129-11.345l0-7.395,4.255-.112c6.011-.158,8.219-.613,9.709-2a6.091,6.091,0,0,0,1.44-5.278c-.457-2.861-1.941-4.153-5.484-4.774-.568-.1-3.044-.238-5.5-.307l-4.471-.126.1-7.914c.056-4.353.047-7.914-.02-7.914a9.532,9.532,0,0,0-1.3.868,24.35,24.35,0,0,1-6.2,3.028c-.884.28-1.65.546-1.7.591s-.137,2.479-.19,5.409c-.091,5.082-.116,5.373-.54,6.313-.385.852-.674,1.143-2.125,2.137-4.429,3.033-8.156,3.717-12.456,2.286a8.832,8.832,0,0,0-2-.516,7.45,7.45,0,0,0-.927,1.813c-1.131,2.728-2.58,3.844-5.025,3.871-3.288.036-5.037-2.781-5.688-9.159-.438-4.3.148-13.351,1.021-15.756,1.075-2.961,3.588-4.945,7.854-6.2a1.873,1.873,0,0,0,.909-.466,2.6,2.6,0,0,0-.5-1.146,10.979,10.979,0,0,1-1.443-4.7,12.168,12.168,0,0,1,4.982-10.369,8.5,8.5,0,0,1,5.724-1.735c2.134-.008,2.2,0,3.673.707a11.756,11.756,0,0,1,5.545,14.53c-.419.99-.2,1.207.822.81,1.45-.563,3.08-1.877,5.4-4.348a36.876,36.876,0,0,1,3.259-3.149l1.013-.752L64.333,21.2c-.126-9.59-.56-12.245-2.109-12.893-1.57-.656-11.369-.84-14.387-.27-2.8.528-3.518,1.309-10.88,11.812C27.112,33.894,18.328,47.936,14.388,55.924c-3.48,7.056-3.719,10.189-.988,12.922,1.821,1.822,5.036,3.144,9.162,3.768,4.776.722,22.018.851,26.03.194.936-.153,1.755-.282,1.82-.285s.166,3.163.224,7.038c.112,7.416.259,8.924,1.085,11.134a6.127,6.127,0,0,0,3.751,3.687,9.4,9.4,0,0,0,4.432-.04ZM33.068,65.654c1.045-1.371,1.436-4.533,1.436-11.638v-4.79l.553-.553a1.637,1.637,0,0,1,2.466-.021c.515.515.536.615.673,3.168.078,1.45.094,3.594.037,4.765-.151,3.062-.043,3.335,1.627,4.121a9.378,9.378,0,0,0,9.432-.718c1.775-1.14,1.7-.85,1.8-7.382a53.776,53.776,0,0,1,.284-6.242c.265-.693.57-.838,3.067-1.455,4.107-1.016,6.4-2.4,10.275-6.192,2.92-2.859,3.638-3.929,3.638-5.419a1.345,1.345,0,0,0-.582-1.33c-1.424-1.2-3.21-.282-5.244,2.687A13.873,13.873,0,0,1,55.4,40.107a10.051,10.051,0,0,1-4.17.48,14.622,14.622,0,0,0-3.688.273,29.265,29.265,0,0,1-4.53.447,22.644,22.644,0,0,0-5.743.736c-3.851.993-5.732,2.14-6.524,3.979-.628,1.46-.842,4.779-.732,11.365.085,5.116.14,5.9.481,6.966a5.853,5.853,0,0,0,.712,1.56c.52.574,1.307.464,1.859-.26Zm13.972-28.5a5.43,5.43,0,0,0,2.182-1.234c1.7-1.532,2.23-3.426,1.661-5.978a8.187,8.187,0,0,0-2.321-4.22,4.9,4.9,0,0,0-3.942-1.684A6.966,6.966,0,0,0,38.426,28.4,8.775,8.775,0,0,0,38,34.132a5.231,5.231,0,0,0,3.94,3.4,13.274,13.274,0,0,0,5.1-.384Z" transform="translate(4.545 69.253)" fill="none"/>
  <path id="path2097" d="M54.482,99.449a9.538,9.538,0,0,1-5.794-3.86c-1.632-2.543-2.091-4.978-2.513-13.334l-.229-4.539L36.49,77.7c-13.549-.02-17.4-.425-21.843-2.3-4.266-1.8-6.967-4.687-7.839-8.385-.927-3.933.492-8.529,4.872-15.781C16.6,43.1,35.659,13.761,39.854,7.88c1.671-2.343,2.4-3.023,3.982-3.723,2.147-.949,3.729-1.14,9.391-1.133,9.038.011,12.576.917,14.03,3.591.97,1.784,1.356,4.489,1.85,12.95.609,10.437.525,9.6,1.081,10.739a7.51,7.51,0,0,1,0,5.56c-.475,1.4-.5,1.731-.781,9.361-.38,10.422-.431,9.274.419,9.5.39.1,1.717.321,2.948.481,6.417.836,10.574,3.885,11.654,8.549a14.691,14.691,0,0,1-.084,5.446c-1.3,4.823-4.777,7.236-12.012,8.33a19.493,19.493,0,0,0-2.5.5c-.617.24-.654.423-.808,3.941a86.883,86.883,0,0,1-.962,9.267,10.213,10.213,0,0,1-4.771,7.152,14.188,14.188,0,0,1-8.8,1.058Zm5.423-5.107a6.488,6.488,0,0,0,3.252-3.03c1.013-2.141,1.125-3.267,1.129-11.345l0-7.395,4.255-.112c6.011-.158,8.219-.613,9.709-2a6.091,6.091,0,0,0,1.44-5.278c-.457-2.861-1.941-4.153-5.484-4.774-.568-.1-3.044-.238-5.5-.307l-4.471-.126.1-7.914c.056-4.353.047-7.914-.02-7.914a9.532,9.532,0,0,0-1.3.868,24.35,24.35,0,0,1-6.2,3.028c-.884.28-1.65.546-1.7.591s-.137,2.479-.19,5.409c-.091,5.082-.116,5.373-.54,6.313-.385.852-.674,1.143-2.125,2.137-4.429,3.033-8.156,3.717-12.456,2.286a8.832,8.832,0,0,0-2-.516,7.45,7.45,0,0,0-.927,1.813c-1.131,2.728-2.58,3.844-5.025,3.871-3.288.036-5.037-2.781-5.688-9.159-.438-4.3.148-13.351,1.021-15.756,1.075-2.961,3.588-4.945,7.854-6.2a1.873,1.873,0,0,0,.909-.466,2.6,2.6,0,0,0-.5-1.146,10.979,10.979,0,0,1-1.443-4.7,12.168,12.168,0,0,1,4.982-10.369,8.5,8.5,0,0,1,5.724-1.735c2.134-.008,2.2,0,3.673.707a11.756,11.756,0,0,1,5.545,14.53c-.419.99-.2,1.207.822.81,1.45-.563,3.08-1.877,5.4-4.348a36.876,36.876,0,0,1,3.259-3.149l1.013-.752L64.333,21.2c-.126-9.59-.56-12.245-2.109-12.893-1.57-.656-11.369-.84-14.387-.27-2.8.528-3.518,1.309-10.88,11.812C27.112,33.894,18.328,47.936,14.388,55.924c-3.48,7.056-3.719,10.189-.988,12.922,1.821,1.822,5.036,3.144,9.162,3.768,4.776.722,22.018.851,26.03.194.936-.153,1.755-.282,1.82-.285s.166,3.163.224,7.038c.112,7.416.259,8.924,1.085,11.134a6.127,6.127,0,0,0,3.751,3.687,9.4,9.4,0,0,0,4.432-.04ZM33.068,65.654c1.045-1.371,1.436-4.533,1.436-11.638v-4.79l.553-.553a1.637,1.637,0,0,1,2.466-.021c.515.515.536.615.673,3.168.078,1.45.094,3.594.037,4.765-.151,3.062-.043,3.335,1.627,4.121a9.378,9.378,0,0,0,9.432-.718c1.775-1.14,1.7-.85,1.8-7.382a53.776,53.776,0,0,1,.284-6.242c.265-.693.57-.838,3.067-1.455,4.107-1.016,6.4-2.4,10.275-6.192,2.92-2.859,3.638-3.929,3.638-5.419a1.345,1.345,0,0,0-.582-1.33c-1.424-1.2-3.21-.282-5.244,2.687A13.873,13.873,0,0,1,55.4,40.107a10.051,10.051,0,0,1-4.17.48,14.622,14.622,0,0,0-3.688.273,29.265,29.265,0,0,1-4.53.447,22.644,22.644,0,0,0-5.743.736c-3.851.993-5.732,2.14-6.524,3.979-.628,1.46-.842,4.779-.732,11.365.085,5.116.14,5.9.481,6.966a5.853,5.853,0,0,0,.712,1.56c.52.574,1.307.464,1.859-.26Zm13.972-28.5a5.43,5.43,0,0,0,2.182-1.234c1.7-1.532,2.23-3.426,1.661-5.978a8.187,8.187,0,0,0-2.321-4.22,4.9,4.9,0,0,0-3.942-1.684A6.966,6.966,0,0,0,38.426,28.4,8.775,8.775,0,0,0,38,34.132a5.231,5.231,0,0,0,3.94,3.4,13.274,13.274,0,0,0,5.1-.384Z" transform="translate(4.545 69.253)" fill="none"/>
  <path id="path2099" d="M51.954,91c-2.76-1.017-4.292-4.672-4.557-10.877a96.494,96.494,0,0,1,.454-10.842c.094-.328.025-.349-.779-.239-5.541.759-19.846,1.071-24.5.534-7.95-.917-12.22-2.735-13.746-5.853-1.4-2.859.415-7.852,6.887-18.951,5.074-8.7,15.4-24.191,23.5-35.257,2.523-3.445,2.763-3.655,4.782-4.188a38.376,38.376,0,0,1,9.023-.575c3.575.13,5.745.483,6.283,1.021.817.817,1.257,4.879,1.408,13l.117,6.241-.984.636a23.946,23.946,0,0,0-3.085,2.964c-2.185,2.422-3.372,3.451-4.832,4.191s-1.594.636-1.016-.746c.443-1.059.5-1.428.5-3.546a9.432,9.432,0,0,0-.442-3.688,12.412,12.412,0,0,0-4.59-6.322c-4.954-3.308-11.935-1.051-14.7,4.751a10.85,10.85,0,0,0-1.249,5.542,9.1,9.1,0,0,0,1.345,5.26,5.13,5.13,0,0,1,.6,1.155c-.037.031-.7.246-1.477.478-4.177,1.251-6.779,3.671-7.635,7.1-.812,3.254-1.072,13.675-.429,17.209.75,4.128,2.009,6.151,4.245,6.825a5,5,0,0,0,3.732-.384c1.219-.551,2.015-1.506,2.839-3.411a13.384,13.384,0,0,1,.8-1.656,3.433,3.433,0,0,1,1.461.309,12.515,12.515,0,0,0,5.364.816,15.029,15.029,0,0,0,8.091-3.231c2.144-1.527,2.322-2.18,2.327-8.535a46.8,46.8,0,0,1,.148-4.954,6.152,6.152,0,0,1,1.7-.718A21.406,21.406,0,0,0,59.208,42.4l1.614-1.052L60.7,46.133c-.067,2.633-.174,6.2-.238,7.919l-.116,3.131,2.819-.08c3.823-.109,7.423.206,9.032.79,1.9.691,2.638,1.259,3.256,2.521a4.763,4.763,0,0,1,.538,2.7c0,3.435-1.235,4.767-5.2,5.6a28.785,28.785,0,0,1-6.028.346l-4.42.007.165,3.31c.27,5.409.19,11.4-.172,13.016-.589,2.626-1.637,4.294-3.32,5.281a4.308,4.308,0,0,1-2.574.556A7,7,0,0,1,51.955,91Zm-.073-33.368c0-.1-.038-.189-.083-.189s-.136.085-.2.189-.027.189.083.189A.2.2,0,0,0,51.882,57.634Z" transform="translate(7.97 72.409)" fill="none"/>
  <path id="path2103" d="M54.482,99.449a9.538,9.538,0,0,1-5.794-3.86c-1.632-2.543-2.091-4.978-2.513-13.334l-.229-4.539L36.49,77.7c-13.549-.02-17.4-.425-21.843-2.3-4.266-1.8-6.967-4.687-7.839-8.385-.927-3.933.492-8.529,4.872-15.781C16.6,43.1,35.659,13.761,39.854,7.88c1.671-2.343,2.4-3.023,3.982-3.723,2.147-.949,3.729-1.14,9.391-1.133,9.038.011,12.576.917,14.03,3.591.97,1.784,1.356,4.489,1.85,12.95.609,10.437.525,9.6,1.081,10.739a7.51,7.51,0,0,1,0,5.56c-.475,1.4-.5,1.731-.781,9.361-.38,10.422-.431,9.274.419,9.5.39.1,1.717.321,2.948.481,6.417.836,10.574,3.885,11.654,8.549a14.691,14.691,0,0,1-.084,5.446c-1.3,4.823-4.777,7.236-12.012,8.33a19.493,19.493,0,0,0-2.5.5c-.617.24-.654.423-.808,3.941a86.883,86.883,0,0,1-.962,9.267,10.213,10.213,0,0,1-4.771,7.152,14.188,14.188,0,0,1-8.8,1.058Zm5.423-5.107a6.488,6.488,0,0,0,3.252-3.03c1.013-2.141,1.125-3.267,1.129-11.345l0-7.395,4.255-.112c6.011-.158,8.219-.613,9.709-2a6.091,6.091,0,0,0,1.44-5.278c-.457-2.861-1.941-4.153-5.484-4.774-.568-.1-3.044-.238-5.5-.307l-4.471-.126.1-7.914c.056-4.353.047-7.914-.02-7.914a9.532,9.532,0,0,0-1.3.868,24.35,24.35,0,0,1-6.2,3.028c-.884.28-1.65.546-1.7.591s-.137,2.479-.19,5.409c-.091,5.082-.116,5.373-.54,6.313-.385.852-.674,1.143-2.125,2.137-4.429,3.033-8.156,3.717-12.456,2.286a8.832,8.832,0,0,0-2-.516,7.45,7.45,0,0,0-.927,1.813c-1.131,2.728-2.58,3.844-5.025,3.871-3.288.036-5.037-2.781-5.688-9.159-.438-4.3.148-13.351,1.021-15.756,1.075-2.961,3.588-4.945,7.854-6.2a1.873,1.873,0,0,0,.909-.466,2.6,2.6,0,0,0-.5-1.146,10.979,10.979,0,0,1-1.443-4.7,12.168,12.168,0,0,1,4.982-10.369,8.5,8.5,0,0,1,5.724-1.735c2.134-.008,2.2,0,3.673.707a11.756,11.756,0,0,1,5.545,14.53c-.419.99-.2,1.207.822.81,1.45-.563,3.08-1.877,5.4-4.348a36.876,36.876,0,0,1,3.259-3.149l1.013-.752L64.333,21.2c-.126-9.59-.56-12.245-2.109-12.893-1.57-.656-11.369-.84-14.387-.27-2.8.528-3.518,1.309-10.88,11.812C27.112,33.894,18.328,47.936,14.388,55.924c-3.48,7.056-3.719,10.189-.988,12.922,1.821,1.822,5.036,3.144,9.162,3.768,4.776.722,22.018.851,26.03.194.936-.153,1.755-.282,1.82-.285s.166,3.163.224,7.038c.112,7.416.259,8.924,1.085,11.134a6.127,6.127,0,0,0,3.751,3.687,9.4,9.4,0,0,0,4.432-.04ZM33.068,65.654c1.045-1.371,1.436-4.533,1.436-11.638v-4.79l.553-.553a1.637,1.637,0,0,1,2.466-.021c.515.515.536.615.673,3.168.078,1.45.094,3.594.037,4.765-.151,3.062-.043,3.335,1.627,4.121a9.378,9.378,0,0,0,9.432-.718c1.775-1.14,1.7-.85,1.8-7.382a53.776,53.776,0,0,1,.284-6.242c.265-.693.57-.838,3.067-1.455,4.107-1.016,6.4-2.4,10.275-6.192,2.92-2.859,3.638-3.929,3.638-5.419a1.345,1.345,0,0,0-.582-1.33c-1.424-1.2-3.21-.282-5.244,2.687A13.873,13.873,0,0,1,55.4,40.107a10.051,10.051,0,0,1-4.17.48,14.622,14.622,0,0,0-3.688.273,29.265,29.265,0,0,1-4.53.447,22.644,22.644,0,0,0-5.743.736c-3.851.993-5.732,2.14-6.524,3.979-.628,1.46-.842,4.779-.732,11.365.085,5.116.14,5.9.481,6.966a5.853,5.853,0,0,0,.712,1.56c.52.574,1.307.464,1.859-.26Zm13.972-28.5a5.43,5.43,0,0,0,2.182-1.234c1.7-1.532,2.23-3.426,1.661-5.978a8.187,8.187,0,0,0-2.321-4.22,4.9,4.9,0,0,0-3.942-1.684A6.966,6.966,0,0,0,38.426,28.4,8.775,8.775,0,0,0,38,34.132a5.231,5.231,0,0,0,3.94,3.4,13.274,13.274,0,0,0,5.1-.384Z" transform="translate(4.545 69.253)" fill="none"/>
  <path id="path2105" d="M58.78,109.008a14.214,14.214,0,0,1-8.823-4.039c-3.494-3.462-5.216-8.33-5.656-15.985l-.125-2.176H36.3c-8.416,0-10.868-.153-15.287-.959-5.689-1.038-9.089-2.629-12.1-5.664a10.179,10.179,0,0,1-2.49-3.518C3.127,69.84,4.221,62.356,9.88,52.958c1.972-3.275,26.555-41.267,28.083-43.4q3.8-5.308,6.733-6.775c2.317-1.163,7-1.774,13.789-1.8,4.444-.016,5.106.024,6.888.411a16.346,16.346,0,0,1,8.553,4.3c3,2.939,4.695,7.032,5.568,13.415a103.808,103.808,0,0,1,.1,15.413c-.255,3.208-1.081,14.6-1.249,17.221l-.116,1.808,1.871.22a14.128,14.128,0,0,1,8.372,3.786,16.817,16.817,0,0,1,4.934,8.075,23.173,23.173,0,0,1,0,9.078,15.088,15.088,0,0,1-4.425,7.4,16.674,16.674,0,0,1-8.916,4.354l-1.76.312-.118,2.666c-.4,9.15-3.464,15.324-8.9,17.959a15.037,15.037,0,0,1-5.788,1.626,16.75,16.75,0,0,1-4.716-.017Zm6.934-5.643a9.365,9.365,0,0,0,6.087-6.45c.72-2.258.989-4.606,1.1-9.61.125-5.7.053-5.5,2.086-5.506a23.653,23.653,0,0,0,6.226-1.044A11.365,11.365,0,0,0,85.92,77.93c1.807-1.8,2.642-3.859,2.841-7.006.225-3.565-.842-6.719-2.926-8.648-2.449-2.268-7.467-3.925-11.89-3.928h-.993v-.993c0-.546.129-4.4.286-8.557.245-6.491.337-7.715.651-8.621.892-2.582.893-4.759,0-6.467-.464-.89-.669-3.59-.942-12.428-.191-6.2-.4-7.991-1.165-10.167-1.012-2.867-2.931-3.9-8.573-4.6a67.8,67.8,0,0,0-12.566.076c-3.894.719-5.781,1.717-7.182,3.8-2.114,3.139-27.331,42.244-28.854,44.745C11.156,60.806,9.982,63.924,9.839,67.8c-.14,3.786.635,6.141,2.759,8.385,2.577,2.723,6.32,4.288,12.6,5.267,2.381.371,3.408.414,10.212.425,4.161.007,8.978-.055,10.706-.138l3.142-.149.131,4.594c.147,5.149.342,7.264.883,9.591.868,3.731,2.9,6.233,6.015,7.4,1.706.641,2.413.727,5.41.662a11.437,11.437,0,0,0,4.014-.479Z" transform="translate(0.894 65.455)" fill="none"/>
  <path id="path2119" d="M15.912,47.072a7.4,7.4,0,0,1-.631-1.453c-.261-.829-.311-1.417-.435-5.148-.159-4.8.018-10.4.376-11.89.594-2.471,2.1-3.651,6.15-4.808a17.881,17.881,0,0,1,6.068-.876,15.775,15.775,0,0,0,4.83-.494,7.265,7.265,0,0,1,2.407-.24c3.545.087,5.068-.145,7-1.066a14.3,14.3,0,0,0,5.5-4.658,9.576,9.576,0,0,1,2.623-2.991,2.085,2.085,0,0,1,2.931.428,2.582,2.582,0,0,1,.146.907c.011,1.478-1.478,3.38-5.5,7.019a19.1,19.1,0,0,1-9.169,4.542,12.446,12.446,0,0,0-1.4.331,2.094,2.094,0,0,0-1.041,1.093c-.068.184-.133,2.35-.145,4.814s-.069,5.167-.13,6.008c-.125,1.754-.107,1.726-1.848,2.758a8.8,8.8,0,0,1-5.17,1.529,6.247,6.247,0,0,1-2.446-.334A8.814,8.814,0,0,1,23.3,41.2c-.157-.189-.2-1.161-.259-5.326-.059-4.492-.094-5.145-.3-5.516a2.059,2.059,0,0,0-3.46-.094c-.234.355-.252.7-.253,4.8,0,8.879-.613,12.192-2.3,12.457-.455.072-.513.04-.825-.44Z" transform="translate(19.881 87.848)" fill="#fff" stroke="#fff" stroke-width="0.135"/>
  <path id="path2121" d="M21.693,23.557a4.789,4.789,0,0,1-3.965-3.6,8.1,8.1,0,0,1,.189-4.534,7.621,7.621,0,0,1,4.358-4.692,5.4,5.4,0,0,1,2.1-.287,3.53,3.53,0,0,1,2.073.361,8.216,8.216,0,0,1,4.1,6.649A5.349,5.349,0,0,1,27.8,22.716a10.688,10.688,0,0,1-6.109.841Z" transform="translate(24.905 83.045)" fill="#fff" stroke="#fff" stroke-width="0.135"/>
  <path id="path2123" d="M55.807,99.749a10.137,10.137,0,0,1-6.7-3.5,14.086,14.086,0,0,1-2.048-4.313,60.917,60.917,0,0,1-.883-9.294c-.116-2.317-.24-4.411-.277-4.655l-.066-.443-4.974.108c-16.805.366-22.352-.2-27.573-2.8A11.511,11.511,0,0,1,7.524,69.2a9.131,9.131,0,0,1-.954-5c.147-3.194,1.324-6.51,3.888-10.955,2.307-4,10.151-16.288,20.118-31.514C37.94,10.48,40.323,7,41.551,5.709s3.183-2.095,6.136-2.529a83.271,83.271,0,0,1,11.864.076c6.8.854,8.325,2.276,8.961,8.362.228,2.184.648,8.343.944,13.853.195,3.621.242,4.045.489,4.392a5.82,5.82,0,0,1,.77,3.012,11.231,11.231,0,0,1-.728,3.7c-.308.9-.329,1.226-.61,9.408-.162,4.709-.24,8.522-.177,8.586a22.921,22.921,0,0,0,4.089.728c3.49.452,6.98,2.058,8.81,4.054a10.714,10.714,0,0,1,2.237,9.9,9.343,9.343,0,0,1-5.061,6.361c-1.906.983-3.7,1.469-7.929,2.143a8.519,8.519,0,0,0-1.694.408c-.437.226-.469.414-.611,3.613-.2,4.512-.93,10.125-1.51,11.616a12.008,12.008,0,0,1-2.6,3.91c-1.964,1.818-5.922,2.882-9.122,2.451Zm3.945-5.358a6.026,6.026,0,0,0,2.758-2.026c.923-1.254,1.35-2.665,1.667-5.513.194-1.743.237-8.671.073-11.935l-.116-2.307H65.52c2.391,0,7.077-.265,8.54-.481,3.237-.478,4.613-1.386,5.36-3.538a5.961,5.961,0,0,0,.3-2.265c0-2.859-1.066-4.521-3.432-5.353-1.574-.553-5.73-.932-10.23-.932H64l.078-.769c.182-1.806.367-8.392.327-11.631l-.044-3.508-1.126.805a23.225,23.225,0,0,1-6.9,3.327,6.262,6.262,0,0,0-1.2.432,47.409,47.409,0,0,0-.222,5.233c-.113,6.556-.193,6.887-1.973,8.167-4.983,3.582-9.208,4.374-13.67,2.561-1.014-.412-1.525-.433-1.719-.07-.079.147-.371.824-.649,1.5a5.659,5.659,0,0,1-1.923,2.885A4.645,4.645,0,0,1,31.8,70a3.355,3.355,0,0,1-1.9-.375c-1.954-.959-3.177-3.6-3.732-8.049a74.238,74.238,0,0,1,.557-15.044c.763-3.823,3.249-6.168,8.079-7.624a4.5,4.5,0,0,0,1.24-.491,3.56,3.56,0,0,0-.549-1.014c-3.361-5.013-1.038-13.109,4.572-15.932a10.267,10.267,0,0,1,6.591-.962,10.478,10.478,0,0,1,6.829,5.908,10.757,10.757,0,0,1,.369,9.5,1.107,1.107,0,0,0-.085.629c.074.192.163.187.887-.058,1.653-.558,3.141-1.754,5.606-4.506a16.239,16.239,0,0,1,3.563-3.319l.6-.381,0-4.212c0-8.276-.5-13.684-1.38-15C62.408,8.1,61.177,7.9,55.377,7.792c-5.48-.1-8.069.152-9.585.926-1.394.711-3.265,3.131-10.531,13.613-12.018,17.339-20.725,31.917-23,38.513-1.293,3.745-.974,5.993,1.147,8.095,2.052,2.033,6.145,3.492,11.043,3.937,2.786.253,7.477.4,12.771.4a85.484,85.484,0,0,0,11.8-.509l1.5-.243,0,4.356c.006,11.075.571,14.255,2.9,16.328a6.592,6.592,0,0,0,6.322,1.182ZM32.911,65.963c1.189-1.114,1.552-3.6,1.681-11.5l.086-5.246L35.1,48.8a1.7,1.7,0,0,1,2.672.308c.186.36.236,1.189.327,5.38.061,2.811.167,5.112.245,5.318.147.387,1.04.9,2.688,1.555a5.745,5.745,0,0,0,2.743.342,6.836,6.836,0,0,0,2.942-.372,15.189,15.189,0,0,0,3.712-2c.595-.551.656-1.123.758-7.127.119-6.925-.053-6.451,2.534-6.995a20.545,20.545,0,0,0,7.144-2.983,39.609,39.609,0,0,0,5.473-4.976c1.878-2.115,2.506-3.727,1.906-4.888a2.232,2.232,0,0,0-1.9-.931c-1.161,0-2.2.857-3.815,3.143a14.821,14.821,0,0,1-5.748,4.946c-1.682.776-2.288.882-5.714,1a23.333,23.333,0,0,0-3.878.317,19.278,19.278,0,0,1-4.881.477,21.442,21.442,0,0,0-7.689,1.5c-2.656.971-4.034,2.471-4.407,4.795-.077.478-.206,2.368-.288,4.2-.181,4.057.017,10.889.352,12.174a5.307,5.307,0,0,0,1,2.216,1.2,1.2,0,0,0,1.641-.231ZM46.364,37.427a5.56,5.56,0,0,0,4.7-4.7,9.085,9.085,0,0,0-1.341-5.711,8.44,8.44,0,0,0-2.764-2.562c-.814-.4-.867-.408-2.482-.362a4.516,4.516,0,0,0-2.583.5c-3.573,1.745-5.4,6.913-3.657,10.347,1.264,2.49,4.193,3.387,8.124,2.488Z" transform="translate(4.568 69.214)" stroke="#000" stroke-width="0.135"/>
</svg>
